<?xml version="1.0" encoding="utf-8"?>
<!-- Generator: Adobe Illustrator 21.0.0, SVG Export Plug-In . SVG Version: 6.00 Build 0)  -->
<svg version="1.1" id="Layer_1" xmlns="http://www.w3.org/2000/svg" xmlns:xlink="http://www.w3.org/1999/xlink" x="0px" y="0px"
	 width="1400px" height="980px" viewBox="0 0 1400 980" enable-background="new 0 0 1400 980" xml:space="preserve">
<g>
	<rect fill="#007642" width="1400" height="980"/>
	<path fill="#00562D" d="M477.6,66c-23.4,0-46.4,1.9-68.8,5.6C207.3,104.4,53.6,279.2,53.6,490c0,234.2,189.8,424,424,424
		s424-189.8,424-424S711.7,66,477.6,66z"/>
	<g>
		<g>
			<path fill="#C57D37" d="M879.2,490c0,221.8-179.8,401.7-401.7,401.7S75.9,711.8,75.9,490c0-199.7,145.7-365.3,336.5-396.4
				c21.2-3.5,43-5.3,65.1-5.3C699.4,88.3,879.2,268.2,879.2,490z"/>
			<path fill="#FFF377" d="M860.5,490c0,211.5-171.4,382.9-382.9,382.9S94.7,701.5,94.7,490c0-190.3,138.8-348.2,320.8-377.9
				c20.2-3.3,41-5,62.1-5C689,107.1,860.5,278.5,860.5,490z"/>
			<circle fill="#FABE49" cx="477.6" cy="490" r="306.9"/>
			<circle fill="#1E1C1D" cx="477.6" cy="490" r="232.8"/>
			<circle fill="#FFF377" cx="477.6" cy="490" r="38.7"/>
			<circle fill="#FFF6AA" cx="477.6" cy="490" r="26.3"/>
			<circle fill="#FBFBEA" cx="493.1" cy="475.1" r="12.9"/>
			<path fill="#FAC049" d="M389.3,107.8c75.7-19.4,158-15,231.8,13.1l6.9,2.6l3.5,1.3c1.1,0.5,2.3,1,3.4,1.5l13.5,6
				c4.5,2.1,8.8,4.4,13.3,6.6c4.5,2.1,8.7,4.6,13,7.1c8.7,4.7,16.9,10.2,25.3,15.5L712,170l3,2.1l2.9,2.3l5.9,4.5
				c15.5,12.2,30.3,25.5,43.7,40c3.5,3.5,6.7,7.3,9.9,11c3.2,3.7,6.6,7.4,9.6,11.3c3.1,3.9,6.2,7.7,9.2,11.7l8.6,12.1
				c11.1,16.4,21.2,33.4,29.8,51.2c8.5,17.9,15.9,36.2,21.8,55.1c5.6,19,10,38.3,13,57.8c2.7,19.6,4.2,39.3,4.1,59
				c-0.1,39.5-6.4,78.8-18.3,116.3c-6,18.7-13.5,36.9-22.3,54.5c-2.2,4.4-4.5,8.7-6.8,13c-2.4,4.3-4.9,8.5-7.3,12.7
				c-2.6,4.2-5.2,8.3-7.8,12.4l-8.3,12.1c42.3-65.8,64.3-143.6,63.1-221c-0.8-77.4-25.1-154.2-69.2-217.6
				C753,207,690.2,156.8,618.3,128.1l-6.7-2.7c-2.3-0.8-4.6-1.6-6.8-2.4c-4.6-1.5-9.1-3.3-13.7-4.7l-13.9-4.1
				c-4.6-1.4-9.4-2.4-14.1-3.6l-7.1-1.7l-7.1-1.4l-7.1-1.4c-2.4-0.4-4.8-1-7.2-1.3l-14.4-2c-4.8-0.7-9.7-0.9-14.5-1.5
				C466.9,97.5,427.6,100.2,389.3,107.8z"/>
			<path fill="#FAC049" d="M634.5,849.5c-20.1,9.3-41.1,17-62.7,22.6c-10.8,2.8-21.7,5.2-32.6,7.2c-11,1.9-22.1,3.3-33.2,4.3
				c-11.1,1-22.3,1.4-33.5,1.3c-5.6-0.1-11.2-0.1-16.8-0.3l-16.7-1.1c-22.3-2-44.4-5.9-66.1-11.5l-8.1-2.2c-2.7-0.7-5.4-1.4-8.1-2.4
				l-16-5.3l-15.7-6.1c-5.2-2.1-10.3-4.5-15.4-6.8c-20.4-9.4-39.9-20.6-58.4-33.3c-37.1-25.3-69.4-57.5-95.8-93.8
				c-26.4-36.4-46.2-77.4-58.7-120.6l-2.3-8.1l-1.1-4.1l-0.9-4.1c-1.2-5.5-2.5-10.9-3.6-16.4l-2.9-16.6c-0.9-5.5-1.4-11.1-2.1-16.7
				c-2.4-22.3-3-44.8-1.6-67.2c2.6-44.8,13.4-88.9,31-129.9c8.9-20.5,19.6-40.2,31.8-58.8l4.7-6.9c1.6-2.3,3.1-4.6,4.8-6.8
				c3.3-4.4,6.6-9,10-13.3c3.6-4.3,7-8.6,10.6-12.8l11.2-12.4C128.1,294.7,93.7,381,89.9,468.9c-4.1,87.8,21.8,176.6,73.6,247.5
				c51.1,71.3,126.9,124.4,211.5,148.2C459.6,888.5,552.4,883.5,634.5,849.5z"/>
			<g>
				<path fill="#363636" d="M477.6,186.1C477.6,186.1,477.6,186.1,477.6,186.1c-17,0-33.7,1.4-50,4.1l9,58.8c13.3-2.3,27-3.4,41-3.4
					V186.1z"/>
				<path fill="#363636" d="M477.6,180.1C477.6,180.1,477.6,180.1,477.6,180.1l0-61.6c-20.5,0-40.6,1.7-60.2,4.9l9.3,61
					C443.2,181.6,460.2,180.1,477.6,180.1z"/>
			</g>
			<g>
				<path fill="#D73626" d="M424.8,190.7C424.8,190.7,424.8,190.7,424.8,190.7c-16.8,3-33,7.3-48.5,12.8l19.1,56.4
					c12.7-4.5,26-8.1,39.8-10.5L424.8,190.7z"/>
				<path fill="#D73626" d="M423.8,184.8C423.8,184.8,423.8,184.8,423.8,184.8l-10.7-60.7c-20.2,3.6-39.7,8.7-58.5,15.3l19.8,58.4
					C390.2,192.2,406.7,187.9,423.8,184.8z"/>
			</g>
			<g>
				<path fill="#363636" d="M373.6,204.4C373.6,204.4,373.6,204.4,373.6,204.4c-16,5.8-31.2,12.9-45.6,21l28.6,52.2
					c11.8-6.7,24.2-12.5,37.4-17.3L373.6,204.4z"/>
				<path fill="#363636" d="M371.6,198.8C371.6,198.8,371.6,198.8,371.6,198.8l-21.1-57.9c-19.3,7-37.6,15.5-55,25.2l29.6,54.1
					C339.8,211.9,355.3,204.8,371.6,198.8z"/>
			</g>
			<g>
				<path fill="#D73626" d="M325.6,226.8C325.6,226.8,325.6,226.8,325.6,226.8c-14.8,8.5-28.5,18.1-41.3,28.6l37.2,46.5
					c10.4-8.6,21.7-16.5,33.8-23.5L325.6,226.8z"/>
				<path fill="#D73626" d="M322.6,221.7C322.6,221.7,322.6,221.7,322.6,221.7l-30.8-53.4c-17.8,10.3-34.4,21.8-49.7,34.3l38.6,48.1
					C293.6,240.1,307.6,230.3,322.6,221.7z"/>
			</g>
			<g>
				<path fill="#363636" d="M282.2,257.2C282.2,257.2,282.2,257.2,282.2,257.2c-13.1,11-24.9,22.8-35.7,35.3l44.7,39.3
					c8.8-10.3,18.5-20,29.2-29L282.2,257.2z"/>
				<path fill="#363636" d="M278.4,252.6C278.4,252.6,278.4,252.6,278.4,252.6l-39.6-47.2c-15.7,13.2-30.1,27.4-43,42.5l46.3,40.7
					C253,275.8,265.1,263.8,278.4,252.6z"/>
			</g>
			<g>
				<path fill="#D73626" d="M244.8,294.6C244.8,294.6,244.8,294.6,244.8,294.6c-11,13.1-20.6,26.8-29,41l50.9,30.9
					c6.8-11.7,14.7-22.9,23.7-33.6L244.8,294.6z"/>
				<path fill="#D73626" d="M240.2,290.8C240.2,290.8,240.2,290.8,240.2,290.8L193,251.2c-13.2,15.7-24.9,32.2-35,49.3l52.7,32.1
					C219.2,318.1,229.1,304.1,240.2,290.8z"/>
			</g>
			<g>
				<path fill="#363636" d="M214.4,338C214.4,338,214.4,338,214.4,338c-8.5,14.8-15.6,29.9-21.4,45.4l55.5,21.6
					c4.7-12.7,10.5-25.1,17.5-37.2L214.4,338z"/>
				<path fill="#363636" d="M209.2,335.1C209.2,335.1,209.2,335.1,209.2,335.1l-53.4-30.8c-10.3,17.8-18.9,36-25.9,54.6l57.5,22.4
					C193.3,365.5,200.6,350.1,209.2,335.1z"/>
			</g>
			<g>
				<path fill="#D73626" d="M192,386C192,386,192,386,192,386c-5.8,16-10.2,32.2-13.2,48.4l58.4,11.7c2.4-13.3,6-26.6,10.8-39.7
					L192,386z"/>
				<path fill="#D73626" d="M186.4,384C186.4,384,186.4,384,186.4,384l-57.9-21.1c-7,19.3-12.3,38.8-16,58.3l60.5,12.1
					C176,416.8,180.5,400.3,186.4,384z"/>
			</g>
			<g>
				<path fill="#363636" d="M178.3,437.2C178.3,437.2,178.3,437.2,178.3,437.2c-3,16.8-4.4,33.5-4.6,50l59.5,1.4
					c0.1-13.5,1.3-27.2,3.7-41L178.3,437.2z"/>
				<path fill="#363636" d="M172.4,436.2C172.4,436.2,172.4,436.2,172.4,436.2l-60.7-10.7c-3.6,20.2-5.4,40.3-5.7,60.2l61.7,1.4
					C167.9,470.3,169.4,453.3,172.4,436.2z"/>
			</g>
			<g>
				<path fill="#D73626" d="M173.6,490C173.6,490,173.6,490,173.6,490c0,17,1.4,33.7,4.1,50l58.8-9c-2.3-13.3-3.4-27-3.4-41H173.6z"
					/>
				<path fill="#D73626" d="M167.7,490C167.7,490,167.7,490,167.7,490l-61.6,0c0,20.5,1.7,40.6,4.9,60.2l61-9.3
					C169.2,524.3,167.7,507.3,167.7,490z"/>
			</g>
			<g>
				<path fill="#363636" d="M178.3,542.8C178.3,542.8,178.3,542.8,178.3,542.8c3,16.8,7.3,33,12.8,48.5l56.4-19.1
					c-4.5-12.7-8.1-26-10.5-39.8L178.3,542.8z"/>
				<path fill="#363636" d="M172.4,543.8C172.4,543.8,172.4,543.8,172.4,543.8l-60.7,10.7c3.6,20.2,8.7,39.7,15.3,58.5l58.4-19.8
					C179.8,577.4,175.4,560.9,172.4,543.8z"/>
			</g>
			<g>
				<path fill="#D73626" d="M192,593.9C192,593.9,192,593.9,192,593.9c5.8,16,12.9,31.2,21,45.6l52.2-28.6
					c-6.7-11.8-12.5-24.2-17.3-37.4L192,593.9z"/>
				<path fill="#D73626" d="M186.4,596C186.4,596,186.4,596,186.4,596l-57.9,21.1c7,19.3,15.5,37.6,25.2,55l54.1-29.6
					C199.5,627.8,192.3,612.3,186.4,596z"/>
			</g>
			<g>
				<path fill="#363636" d="M214.4,642C214.4,642,214.4,642,214.4,642c8.5,14.8,18.1,28.5,28.6,41.3l46.5-37.2
					c-8.6-10.4-16.5-21.7-23.5-33.8L214.4,642z"/>
				<path fill="#363636" d="M209.2,644.9C209.2,644.9,209.2,644.9,209.2,644.9l-53.4,30.8c10.3,17.8,21.8,34.4,34.3,49.7l48.1-38.6
					C227.7,673.9,217.9,659.9,209.2,644.9z"/>
			</g>
			<g>
				<path fill="#D73626" d="M244.8,685.4C244.8,685.4,244.8,685.4,244.8,685.4c11,13.1,22.8,24.9,35.3,35.7l39.3-44.7
					c-10.3-8.8-20-18.5-29-29.2L244.8,685.4z"/>
				<path fill="#D73626" d="M240.2,689.2C240.2,689.2,240.2,689.2,240.2,689.2L193,728.8c13.2,15.7,27.4,30.1,42.5,43l40.7-46.3
					C263.4,714.6,251.4,702.5,240.2,689.2z"/>
			</g>
			<g>
				<path fill="#363636" d="M282.2,722.8C282.2,722.8,282.2,722.8,282.2,722.8c13.1,11,26.8,20.6,41,29l30.9-50.9
					c-11.7-6.8-22.9-14.7-33.6-23.7L282.2,722.8z"/>
				<path fill="#363636" d="M278.4,727.4C278.4,727.4,278.4,727.4,278.4,727.4l-39.6,47.2c15.7,13.2,32.2,24.9,49.3,35l32.1-52.7
					C305.6,748.3,291.7,738.5,278.4,727.4z"/>
			</g>
			<g>
				<path fill="#D73626" d="M325.6,753.2C325.6,753.2,325.6,753.2,325.6,753.2c14.8,8.5,29.9,15.6,45.4,21.4l21.6-55.5
					c-12.7-4.7-25.1-10.5-37.2-17.5L325.6,753.2z"/>
				<path fill="#D73626" d="M322.6,758.3C322.6,758.3,322.6,758.3,322.6,758.3l-30.8,53.4c17.8,10.3,36,18.9,54.6,25.9l22.4-57.5
					C353.1,774.3,337.7,767,322.6,758.3z"/>
			</g>
			<g>
				<path fill="#363636" d="M373.6,775.6C373.6,775.6,373.6,775.6,373.6,775.6c16,5.8,32.2,10.2,48.4,13.2l11.7-58.4
					c-13.3-2.4-26.6-6-39.7-10.8L373.6,775.6z"/>
				<path fill="#363636" d="M371.6,781.2C371.6,781.2,371.6,781.2,371.6,781.2l-21.1,57.9c19.3,7,38.8,12.3,58.3,16l12.1-60.5
					C404.4,791.6,387.9,787.1,371.6,781.2z"/>
			</g>
			<g>
				<path fill="#D73626" d="M424.8,789.3C424.8,789.3,424.8,789.3,424.8,789.3c16.8,3,33.5,4.4,50,4.6l1.4-59.5
					c-13.5-0.1-27.2-1.3-41-3.7L424.8,789.3z"/>
				<path fill="#D73626" d="M423.8,795.2C423.8,795.2,423.8,795.2,423.8,795.2l-10.7,60.7c20.2,3.6,40.3,5.4,60.2,5.7l1.4-61.7
					C457.8,799.7,440.8,798.2,423.8,795.2z"/>
			</g>
			<g>
				<path fill="#363636" d="M477.6,793.9C477.6,793.9,477.6,793.9,477.6,793.9c17,0,33.7-1.4,50-4.1l-9-58.8
					c-13.3,2.3-27,3.4-41,3.4V793.9z"/>
				<path fill="#363636" d="M477.6,799.9C477.6,799.9,477.6,799.9,477.6,799.9l0,61.6c20.5,0,40.6-1.7,60.2-4.9l-9.3-61
					C511.9,798.4,494.9,799.9,477.6,799.9z"/>
			</g>
			<g>
				<path fill="#D73626" d="M530.4,789.3C530.4,789.3,530.4,789.3,530.4,789.3c16.8-3,33-7.3,48.5-12.8l-19.1-56.4
					c-12.7,4.5-26,8.1-39.8,10.5L530.4,789.3z"/>
				<path fill="#D73626" d="M531.4,795.2C531.4,795.2,531.4,795.2,531.4,795.2l10.7,60.7c20.2-3.6,39.7-8.7,58.5-15.3l-19.8-58.4
					C565,787.8,548.5,792.1,531.4,795.2z"/>
			</g>
			<g>
				<path fill="#363636" d="M581.5,775.6C581.5,775.6,581.5,775.6,581.5,775.6c16-5.8,31.2-12.9,45.6-21l-28.6-52.2
					c-11.8,6.7-24.2,12.5-37.4,17.3L581.5,775.6z"/>
				<path fill="#363636" d="M583.6,781.2C583.6,781.2,583.6,781.2,583.6,781.2l21.1,57.9c19.3-7,37.6-15.5,55-25.2L630,759.8
					C615.3,768.1,599.8,775.2,583.6,781.2z"/>
			</g>
			<g>
				<path fill="#D73626" d="M629.5,753.2C629.5,753.2,629.5,753.2,629.5,753.2c14.8-8.5,28.5-18.1,41.3-28.6l-37.2-46.5
					c-10.4,8.6-21.7,16.5-33.8,23.5L629.5,753.2z"/>
				<path fill="#D73626" d="M632.5,758.3C632.5,758.3,632.5,758.3,632.5,758.3l30.8,53.4c17.8-10.3,34.4-21.8,49.7-34.3l-38.6-48.1
					C661.5,739.9,647.5,749.7,632.5,758.3z"/>
			</g>
			<g>
				<path fill="#363636" d="M672.9,722.8C672.9,722.8,672.9,722.8,672.9,722.8c13.1-11,24.9-22.8,35.7-35.3l-44.7-39.3
					c-8.8,10.3-18.5,20-29.2,29L672.9,722.8z"/>
				<path fill="#363636" d="M676.8,727.4C676.8,727.4,676.8,727.4,676.8,727.4l39.6,47.2c15.7-13.2,30.1-27.4,43-42.5l-46.3-40.7
					C702.1,704.2,690,716.2,676.8,727.4z"/>
			</g>
			<g>
				<path fill="#D73626" d="M710.4,685.4C710.4,685.4,710.4,685.4,710.4,685.4c11-13.1,20.6-26.8,29-41l-50.9-30.9
					c-6.8,11.7-14.7,22.9-23.7,33.6L710.4,685.4z"/>
				<path fill="#D73626" d="M714.9,689.2C714.9,689.2,714.9,689.2,714.9,689.2l47.2,39.6c13.2-15.7,24.9-32.2,35-49.3l-52.7-32.1
					C735.9,661.9,726.1,675.9,714.9,689.2z"/>
			</g>
			<g>
				<path fill="#363636" d="M740.8,642C740.8,642,740.8,642,740.8,642c8.5-14.8,15.6-29.9,21.4-45.4l-55.5-21.6
					c-4.7,12.7-10.5,25.1-17.5,37.2L740.8,642z"/>
				<path fill="#363636" d="M745.9,644.9C745.9,644.9,745.9,644.9,745.9,644.9l53.4,30.8c10.3-17.8,18.9-36,25.9-54.6l-57.5-22.4
					C761.8,614.5,754.6,629.9,745.9,644.9z"/>
			</g>
			<g>
				<path fill="#D73626" d="M763.2,593.9C763.2,593.9,763.2,593.9,763.2,593.9c5.8-16,10.2-32.2,13.2-48.4L718,533.9
					c-2.4,13.3-6,26.6-10.8,39.7L763.2,593.9z"/>
				<path fill="#D73626" d="M768.8,596C768.7,596,768.7,596,768.8,596l57.9,21.1c7-19.3,12.3-38.8,16-58.3l-60.5-12.1
					C779.1,563.2,774.7,579.7,768.8,596z"/>
			</g>
			<g>
				<path fill="#363636" d="M776.9,542.8C776.9,542.8,776.9,542.8,776.9,542.8c3-16.8,4.4-33.5,4.6-50l-59.5-1.4
					c-0.1,13.5-1.3,27.2-3.7,41L776.9,542.8z"/>
				<path fill="#363636" d="M782.7,543.8C782.7,543.8,782.7,543.8,782.7,543.8l60.7,10.7c3.6-20.2,5.4-40.3,5.7-60.2l-61.7-1.4
					C787.3,509.7,785.7,526.7,782.7,543.8z"/>
			</g>
			<g>
				<path fill="#D73626" d="M781.5,490C781.5,490,781.5,490,781.5,490c0-17-1.4-33.7-4.1-50l-58.8,9c2.3,13.3,3.4,27,3.4,41H781.5z"
					/>
				<path fill="#D73626" d="M787.4,490C787.4,490,787.4,490,787.4,490l61.6,0c0-20.5-1.7-40.6-4.9-60.2l-61,9.3
					C786,455.7,787.4,472.7,787.4,490z"/>
			</g>
			<g>
				<path fill="#363636" d="M776.9,437.2C776.9,437.2,776.9,437.2,776.9,437.2c-3-16.8-7.3-33-12.8-48.5l-56.4,19.1
					c4.5,12.7,8.1,26,10.5,39.8L776.9,437.2z"/>
				<path fill="#363636" d="M782.7,436.2C782.7,436.2,782.7,436.2,782.7,436.2l60.7-10.7c-3.6-20.2-8.7-39.7-15.3-58.5l-58.4,19.8
					C775.3,402.6,779.7,419.1,782.7,436.2z"/>
			</g>
			<g>
				<path fill="#D73626" d="M763.2,386C763.2,386,763.2,386,763.2,386c-5.8-16-12.9-31.2-21-45.6L690,369
					c6.7,11.8,12.5,24.2,17.3,37.4L763.2,386z"/>
				<path fill="#D73626" d="M768.7,384C768.7,384,768.7,384,768.7,384l57.9-21.1c-7-19.3-15.5-37.6-25.2-55l-54.1,29.6
					C755.6,352.2,762.8,367.7,768.7,384z"/>
			</g>
			<g>
				<path fill="#80C342" d="M740.8,338C740.8,338,740.8,338,740.8,338c-8.5-14.8-18.1-28.5-28.6-41.3L665.7,334
					c8.6,10.4,16.5,21.7,23.5,33.8L740.8,338z"/>
				<path fill="#80C342" d="M745.9,335.1C745.9,335.1,745.9,335.1,745.9,335.1l53.4-30.8c-10.3-17.8-21.8-34.4-34.3-49.7l-48.1,38.6
					C727.5,306,737.3,320,745.9,335.1z"/>
			</g>
			<g>
				<path fill="#D73626" d="M710.4,294.6C710.4,294.6,710.4,294.6,710.4,294.6c-11-13.1-22.8-24.9-35.3-35.7l-39.3,44.7
					c10.3,8.8,20,18.5,29,29.2L710.4,294.6z"/>
				<path fill="#D73626" d="M714.9,290.8C714.9,290.8,714.9,290.8,714.9,290.8l47.2-39.6c-13.2-15.7-27.4-30.1-42.5-43L679,254.5
					C691.7,265.4,703.8,277.5,714.9,290.8z"/>
			</g>
			<g>
				<path fill="#363636" d="M672.9,257.2C672.9,257.2,672.9,257.2,672.9,257.2c-13.1-11-26.8-20.6-41-29L601,279
					c11.7,6.8,22.9,14.7,33.6,23.7L672.9,257.2z"/>
				<path fill="#363636" d="M676.7,252.6C676.7,252.6,676.8,252.6,676.7,252.6l39.6-47.2c-15.7-13.2-32.2-24.9-49.3-35L635,223.1
					C649.5,231.7,663.5,241.5,676.7,252.6z"/>
			</g>
			<g>
				<path fill="#D73626" d="M629.5,226.8C629.5,226.8,629.5,226.8,629.5,226.8c-14.8-8.5-29.9-15.6-45.4-21.4l-21.6,55.5
					c12.7,4.7,25.1,10.5,37.2,17.5L629.5,226.8z"/>
				<path fill="#D73626" d="M632.5,221.6C632.5,221.7,632.5,221.7,632.5,221.6l30.8-53.4c-17.8-10.3-36-18.9-54.6-25.9l-22.4,57.5
					C602,205.7,617.5,213,632.5,221.6z"/>
			</g>
			<g>
				<path fill="#363636" d="M581.5,204.4C581.5,204.4,581.5,204.4,581.5,204.4c-16-5.8-32.2-10.2-48.4-13.2l-11.7,58.4
					c13.3,2.4,26.6,6,39.7,10.8L581.5,204.4z"/>
				<path fill="#363636" d="M583.6,198.8C583.6,198.8,583.6,198.8,583.6,198.8l21.1-57.9c-19.3-7-38.8-12.3-58.3-16l-12.1,60.5
					C550.8,188.4,567.3,192.9,583.6,198.8z"/>
			</g>
			<g>
				<path fill="#D73626" d="M530.4,190.7C530.4,190.7,530.4,190.7,530.4,190.7c-16.8-3-33.5-4.4-50-4.6l-1.4,59.5
					c13.5,0.1,27.2,1.3,41,3.7L530.4,190.7z"/>
				<path fill="#D73626" d="M531.4,184.8C531.4,184.8,531.4,184.8,531.4,184.8l10.7-60.7c-20.2-3.6-40.3-5.4-60.2-5.7l-1.4,61.7
					C497.3,180.3,514.3,181.8,531.4,184.8z"/>
			</g>
			<g>
				<path fill="#434041" d="M477.6,440c18.7,0,35.1,10.3,43.6,25.6l150.3-62.2c-33.2-74.1-107.5-125.7-194-125.7
					c-42.9,0-82.8,12.7-116.2,34.6l93.5,133.2C461.6,442,469.4,440,477.6,440z"/>
			</g>
			<g>
				<path fill="#322F31" d="M434.3,515c-9.4-16.2-8.6-35.5,0.3-50.6l-129-99.1c-47.6,65.8-55.1,156-11.9,230.8
					c21.5,37.2,52.4,65.4,88.1,83.4L450.4,532C443.9,527.8,438.4,522.1,434.3,515z"/>
			</g>
			<g>
				<path fill="#262425" d="M520.9,515c-9.4,16.2-26.5,25.2-43.9,25l-21.3,161.3c80.7,8.3,162.6-30.3,205.9-105.1
					c21.5-37.2,30.4-78.1,28.1-118l-162.1,14.3C527.1,500.2,525,507.9,520.9,515z"/>
			</g>
		</g>
		<g>
			<path fill="#FFFFFF" d="M437.2,159l6.8-14.6c0.3-0.7,0.5-1.4,0.6-1.9c0-0.5,0-1.2,0-2c0-0.4-0.1-0.7-0.1-1.1c0-0.4-0.1-0.7-0.3-1
				c-0.1-0.3-0.3-0.5-0.6-0.7c-0.3-0.2-0.7-0.3-1.2-0.2c-0.6,0-1.1,0.2-1.5,0.6c-0.4,0.4-0.5,0.9-0.5,1.6l0.1,2.4l-4.2,0.2l-0.1-2.3
				c0-0.9,0.1-1.7,0.4-2.5c0.3-0.8,0.7-1.5,1.2-2.1c0.5-0.6,1.2-1.1,1.9-1.5c0.7-0.4,1.6-0.6,2.4-0.6c1.1-0.1,2,0.1,2.8,0.5
				s1.5,0.9,2,1.5c0.5,0.7,0.9,1.4,1.2,2.3c0.3,0.9,0.4,1.8,0.5,2.8c0,0.7,0.1,1.3,0,1.8c0,0.5,0,0.9-0.1,1.4
				c-0.1,0.4-0.2,0.9-0.3,1.3c-0.2,0.4-0.4,1-0.7,1.6l-5.6,12.2l7.6-0.4l0.2,4.2l-12.5,0.6L437.2,159z"/>
			<path fill="#FFFFFF" d="M456.4,137.1l-4,3.3l-0.2-4.4l4-3.3l4.2-0.2l1.5,29.2l-4.2,0.2L456.4,137.1z"/>
		</g>
		<g>
			<path fill="#FFFFFF" d="M393.1,167.3l-8.2,1.4l-0.7-3.9l2.3-21.7l4.4-0.8l-2.6,21.7l4.1-0.7l-1.4-8.2l4.1-0.7l1.4,8.2l2-0.3
				l0.7,3.9l-2,0.3l0.8,4.3l-4.1,0.7L393.1,167.3z"/>
		</g>
		<g>
			<path fill="#FFFFFF" d="M319.4,171l-2.9,4.3l-1.5-4.2l2.9-4.3l3.9-1.4l10,27.5l-3.9,1.4L319.4,171z"/>
			<path fill="#FFFFFF" d="M336.5,173.2c1.2-0.4,1.9-0.9,2.3-1.3c0.3-0.4,0.3-1.2,0-2.2l-1.3-3.6c-0.2-0.6-0.5-1-1-1.2
				c-0.5-0.2-1-0.2-1.6,0c-0.7,0.3-1.1,0.7-1.2,1.2c-0.1,0.5-0.1,1,0,1.4l0.8,2.2l-3.9,1.4l-0.8-2.3c-0.3-0.8-0.4-1.6-0.4-2.4
				c0-0.8,0.2-1.6,0.6-2.3c0.4-0.7,0.8-1.4,1.4-1.9c0.6-0.6,1.3-1,2.1-1.3c1.1-0.4,2.1-0.5,2.9-0.3c0.9,0.2,1.6,0.4,2.1,0.7
				c0.4,0.2,0.7,0.4,1,0.7c0.3,0.3,0.6,0.6,0.9,1s0.5,0.9,0.8,1.4c0.3,0.6,0.6,1.3,0.9,2.2c0.3,1,0.6,1.7,0.8,2.3
				c0.2,0.6,0.3,1.1,0.2,1.6c0,0.5-0.1,0.9-0.4,1.3c-0.2,0.4-0.6,0.9-1,1.4c0.8,0.2,1.4,0.4,1.8,0.6c0.4,0.2,0.8,0.5,1.1,0.9
				c0.3,0.4,0.6,0.9,0.9,1.5c0.3,0.6,0.6,1.4,0.9,2.4c0.3,0.9,0.6,1.7,0.8,2.3c0.2,0.6,0.3,1.1,0.4,1.6c0.1,0.4,0.1,0.8,0.1,1.1
				c0,0.3-0.1,0.7-0.2,1.1c-0.2,0.9-0.6,1.7-1.2,2.5c-0.6,0.8-1.5,1.4-2.7,1.8c-0.6,0.2-1.3,0.4-2.1,0.4c-0.8,0-1.5-0.1-2.3-0.3
				c-0.7-0.3-1.4-0.7-2.1-1.3c-0.6-0.6-1.2-1.5-1.6-2.5l-0.8-2.2l3.9-1.4l0.7,2c0.2,0.6,0.6,1.1,1.1,1.3c0.5,0.3,1,0.3,1.6,0.1
				c0.6-0.2,1-0.6,1.2-1.1c0.2-0.5,0.2-1.1-0.1-1.8l-1.4-3.9c-0.2-0.5-0.4-1-0.6-1.3c-0.2-0.3-0.5-0.5-0.8-0.6
				c-0.3-0.1-0.7-0.1-1.1,0s-1,0.2-1.6,0.5L336.5,173.2z"/>
		</g>
		<g>
			<path fill="#FFFFFF" d="M281.7,219.6l-0.6-16.1c0-0.8-0.1-1.5-0.4-1.9c-0.2-0.5-0.5-1.1-0.9-1.8c-0.2-0.3-0.4-0.6-0.6-1
				c-0.2-0.3-0.5-0.6-0.7-0.8c-0.3-0.2-0.6-0.3-0.9-0.4c-0.3,0-0.7,0.1-1.2,0.3c-0.5,0.3-0.9,0.7-1,1.2c-0.1,0.5,0,1,0.3,1.6
				l1.2,2.1l-3.6,2.1l-1.1-2c-0.4-0.8-0.7-1.6-0.8-2.4c-0.1-0.8-0.1-1.6,0.1-2.4c0.2-0.8,0.5-1.5,1-2.2c0.5-0.7,1.1-1.2,1.9-1.7
				c0.9-0.5,1.9-0.8,2.7-0.9c0.9,0,1.7,0.1,2.5,0.4c0.8,0.3,1.5,0.8,2.1,1.5c0.6,0.6,1.2,1.4,1.7,2.2c0.4,0.6,0.6,1.1,0.9,1.6
				c0.2,0.4,0.4,0.9,0.5,1.3c0.2,0.4,0.3,0.9,0.3,1.3c0.1,0.5,0.1,1.1,0.1,1.8l0.6,13.4l6.5-3.8l2.1,3.6l-10.8,6.2L281.7,219.6z"/>
		</g>
		<g>
			<path fill="#FFFFFF" d="M221.6,245.6l-0.9,5.1l-3.1-3.2l0.9-5.1l3-2.9l20.1,21.2l-3,2.9L221.6,245.6z"/>
			<path fill="#FFFFFF" d="M237.8,229.5l-6,5.7l5.4,5.7c0-0.5,0.2-1.1,0.4-1.7c0.3-0.6,0.7-1.2,1.2-1.7c1-1,2.2-1.5,3.4-1.4
				c1.2,0,2.5,0.6,3.6,1.9l5.2,5.5c0.7,0.7,1.2,1.5,1.4,2.3c0.3,0.8,0.4,1.6,0.4,2.4c0,0.8-0.2,1.6-0.6,2.3
				c-0.3,0.7-0.8,1.4-1.4,1.9c-0.6,0.6-1.3,1-2,1.3c-0.7,0.3-1.5,0.5-2.3,0.5c-0.8,0-1.6-0.2-2.4-0.5c-0.8-0.3-1.5-0.8-2.2-1.6
				l-0.8-0.9l3-2.9l0.7,0.8c0.5,0.5,1,0.8,1.6,0.8c0.6,0,1.1-0.2,1.5-0.6c0.5-0.4,0.7-0.9,0.7-1.4s-0.3-1-0.7-1.5l-4.7-5
				c-0.4-0.4-0.9-0.6-1.4-0.7c-0.6,0-1,0.1-1.5,0.5c-0.3,0.2-0.4,0.5-0.5,0.8c-0.1,0.3-0.1,0.5-0.1,0.7c0,0.2,0,0.5,0.1,0.7
				c0.1,0.2,0.1,0.4,0.1,0.5l-2.7,2.5l-10.9-11.4l8.7-8.3L237.8,229.5z"/>
		</g>
		<g>
			<path fill="#FFFFFF" d="M190.8,297.5c0.8-1,1.2-1.8,1.2-2.4c0-0.6-0.4-1.2-1.2-1.8l-3-2.3c-0.5-0.4-1-0.5-1.5-0.5
				c-0.5,0.1-1,0.3-1.4,0.8c-0.4,0.6-0.6,1.2-0.4,1.7c0.2,0.5,0.4,0.9,0.8,1.2l1.9,1.4l-2.5,3.3l-1.9-1.5c-0.7-0.5-1.2-1.1-1.6-1.9
				c-0.4-0.7-0.7-1.5-0.8-2.3c-0.1-0.8,0-1.6,0.2-2.4c0.2-0.8,0.6-1.6,1.1-2.3c0.7-0.9,1.4-1.5,2.3-1.9c0.8-0.3,1.5-0.5,2.1-0.5
				c0.4,0,0.8,0,1.2,0c0.4,0,0.8,0.2,1.2,0.3c0.4,0.2,0.9,0.4,1.5,0.8c0.6,0.3,1.2,0.8,1.9,1.3c0.8,0.6,1.5,1.1,1.9,1.5
				c0.5,0.4,0.8,0.8,1.1,1.2c0.2,0.4,0.4,0.8,0.4,1.3c0,0.5,0,1-0.1,1.7c0.7-0.3,1.3-0.4,1.8-0.5c0.5-0.1,1,0,1.5,0.2
				c0.5,0.2,1,0.4,1.5,0.8c0.6,0.4,1.2,0.9,2.1,1.5c0.8,0.6,1.4,1.1,1.9,1.5c0.5,0.4,0.9,0.8,1.1,1.1c0.3,0.3,0.5,0.6,0.7,0.9
				c0.2,0.3,0.3,0.6,0.4,1c0.3,0.9,0.4,1.8,0.3,2.8c-0.1,1-0.5,2-1.3,3c-0.4,0.5-0.9,1-1.5,1.5c-0.6,0.5-1.3,0.8-2.1,1
				c-0.8,0.2-1.6,0.2-2.4,0c-0.9-0.2-1.8-0.6-2.7-1.3l-1.9-1.4l2.5-3.3l1.7,1.3c0.5,0.4,1.1,0.6,1.6,0.5c0.6,0,1-0.3,1.4-0.8
				c0.4-0.5,0.5-1,0.4-1.6c-0.1-0.6-0.5-1-1-1.5l-3.3-2.5c-0.5-0.3-0.9-0.6-1.2-0.7c-0.3-0.1-0.7-0.2-1-0.1
				c-0.3,0.1-0.6,0.3-0.9,0.6c-0.3,0.3-0.7,0.7-1.1,1.3L190.8,297.5z"/>
			<path fill="#FFFFFF" d="M193.7,280.5l-0.1,5.2l-3.5-2.7l0.1-5.2l2.5-3.3l23.3,17.7l-2.5,3.3L193.7,280.5z"/>
		</g>
		<g>
			<path fill="#FFFFFF" d="M164.6,341.9l0.1,0c0-0.2,0-0.4,0.1-0.7c0.1-0.3,0.2-0.6,0.5-1c0.4-0.6,0.9-1.1,1.5-1.5
				c0.6-0.4,1.3-0.6,1.9-0.6c0.4,0,0.7,0,1,0.1c0.3,0.1,0.7,0.2,1.2,0.4c0.5,0.2,1,0.5,1.7,0.8c0.7,0.4,1.5,0.8,2.5,1.4
				c0.8,0.5,1.5,0.9,2,1.2c0.5,0.3,0.9,0.6,1.3,0.9c0.3,0.3,0.6,0.5,0.8,0.8c0.2,0.3,0.4,0.6,0.6,0.9c0.5,0.9,0.7,1.9,0.7,3
				c0,1-0.3,2.1-0.9,3.1c-0.6,1-1.3,1.8-2.2,2.3c-0.9,0.5-1.9,0.8-2.9,0.8c-0.4,0-0.8,0-1.1,0c-0.3,0-0.7-0.1-1.1-0.3
				c-0.4-0.2-0.9-0.4-1.4-0.7c-0.5-0.3-1.2-0.7-2.1-1.1c-0.8-0.5-1.4-0.8-1.9-1.2c-0.5-0.3-0.9-0.6-1.3-0.9
				c-0.3-0.3-0.6-0.5-0.9-0.8c-0.2-0.3-0.5-0.6-0.8-0.9l-10-12.1l2.3-4.1L164.6,341.9z M170.4,342.8c-0.5-0.3-1.1-0.4-1.6-0.2
				c-0.5,0.2-0.9,0.5-1.2,1c-0.3,0.5-0.3,1-0.2,1.5c0.1,0.5,0.5,1,1,1.3l4.7,2.7c0.5,0.3,1.1,0.4,1.6,0.2c0.5-0.2,0.9-0.5,1.2-1
				c0.3-0.5,0.3-1,0.2-1.5c-0.1-0.5-0.5-1-1-1.3L170.4,342.8z"/>
		</g>
		<g>
			<path fill="#FFFFFF" d="M143.2,409.3c0.3-1.2,0.4-2.1,0.2-2.6c-0.2-0.5-0.8-1-1.8-1.2l-3.6-1c-0.6-0.2-1.1-0.1-1.6,0.1
				c-0.5,0.3-0.8,0.7-0.9,1.3c-0.2,0.7-0.1,1.3,0.3,1.7c0.4,0.4,0.8,0.7,1.2,0.8l2.3,0.6l-1.1,4l-2.3-0.6c-0.8-0.2-1.6-0.6-2.2-1.1
				c-0.7-0.5-1.2-1.1-1.5-1.8c-0.4-0.7-0.6-1.5-0.7-2.3c-0.1-0.8-0.1-1.7,0.2-2.5c0.3-1.1,0.8-2,1.4-2.6c0.6-0.6,1.2-1,1.8-1.3
				c0.4-0.2,0.8-0.3,1.2-0.4c0.4-0.1,0.8-0.2,1.3-0.2c0.5,0,1,0.1,1.7,0.2c0.6,0.1,1.4,0.3,2.3,0.5c1,0.3,1.8,0.5,2.4,0.7
				c0.6,0.2,1.1,0.5,1.4,0.7c0.4,0.3,0.6,0.6,0.8,1c0.2,0.4,0.4,1,0.6,1.6c0.6-0.5,1.1-0.9,1.5-1.1c0.4-0.2,0.9-0.4,1.4-0.4
				c0.5,0,1.1,0,1.7,0.2c0.7,0.1,1.5,0.4,2.5,0.6c0.9,0.3,1.7,0.5,2.3,0.7c0.6,0.2,1.1,0.4,1.5,0.6c0.4,0.2,0.7,0.4,1,0.6
				c0.3,0.2,0.5,0.5,0.8,0.8c0.6,0.7,1,1.5,1.3,2.4c0.3,0.9,0.2,2-0.1,3.3c-0.2,0.6-0.5,1.3-0.9,1.9s-0.9,1.2-1.6,1.7
				c-0.6,0.5-1.4,0.8-2.3,0.9c-0.9,0.2-1.9,0.1-3-0.2l-2.3-0.6l1.1-4l2.1,0.6c0.6,0.2,1.2,0.1,1.7-0.1c0.5-0.2,0.8-0.7,1-1.3
				s0.1-1.1-0.2-1.6c-0.3-0.5-0.8-0.8-1.5-1l-4-1.1c-0.6-0.2-1-0.2-1.4-0.2c-0.4,0-0.7,0.1-0.9,0.3c-0.3,0.2-0.5,0.5-0.7,0.9
				c-0.2,0.4-0.4,0.9-0.5,1.6L143.2,409.3z"/>
			<path fill="#FFFFFF" d="M139.8,397.7c-1-0.3-1.8-0.7-2.4-1.2c-0.7-0.5-1.2-1.1-1.5-1.8c-0.4-0.7-0.6-1.4-0.7-2.3
				c-0.1-0.8,0-1.6,0.2-2.4c0.2-0.8,0.6-1.5,1-2.2c0.5-0.7,1.1-1.2,1.7-1.6c0.7-0.4,1.4-0.7,2.3-0.8c0.8-0.1,1.7-0.1,2.7,0.2
				l16.6,4.5c1,0.3,1.8,0.7,2.4,1.2c0.7,0.5,1.2,1.1,1.5,1.8c0.4,0.7,0.6,1.4,0.7,2.3c0.1,0.8,0,1.6-0.2,2.4c-0.2,0.8-0.6,1.5-1,2.2
				c-0.5,0.7-1.1,1.2-1.7,1.6c-0.7,0.4-1.4,0.7-2.3,0.8c-0.8,0.1-1.7,0.1-2.7-0.2L139.8,397.7z M157.5,398.2
				c0.6,0.2,1.1,0.1,1.6-0.2c0.5-0.3,0.8-0.7,1-1.3c0.2-0.6,0.1-1.1-0.2-1.6c-0.3-0.5-0.7-0.8-1.3-0.9l-16.6-4.5
				c-0.6-0.2-1.1-0.1-1.6,0.2c-0.5,0.3-0.8,0.7-1,1.3c-0.2,0.6-0.1,1.1,0.2,1.6c0.3,0.5,0.7,0.8,1.3,0.9L157.5,398.2z"/>
		</g>
		<g>
			<path fill="#FFFFFF" d="M127.1,463.2c-0.8-0.1-1.4-0.3-2-0.4c-0.5-0.2-1-0.3-1.4-0.5c-0.4-0.2-0.7-0.4-1-0.7
				c-0.3-0.2-0.6-0.5-0.9-0.9c-0.6-0.7-1-1.4-1.3-2.3c-0.2-0.9-0.3-1.8-0.1-2.7c0.2-0.9,0.5-1.8,1-2.5c0.5-0.7,1.2-1.3,2-1.7
				c0.4-0.2,0.8-0.4,1.1-0.5c0.4-0.1,0.7-0.2,1.2-0.3c0.4-0.1,0.9-0.1,1.5,0c0.6,0,1.2,0.1,2,0.3c0.9,0.2,1.6,0.3,2.2,0.4
				c0.6,0.1,1.1,0.3,1.5,0.5c0.4,0.2,0.8,0.5,1.1,0.8c0.3,0.3,0.6,0.8,0.9,1.4c0.5-0.4,0.9-0.7,1.3-1c0.4-0.2,0.9-0.3,1.4-0.4
				c0.5,0,1.2,0,1.9,0.1c0.7,0.1,1.7,0.2,2.7,0.4c0.9,0.2,1.6,0.3,2.2,0.5c0.6,0.1,1.1,0.3,1.5,0.5c0.4,0.2,0.8,0.3,1,0.5
				c0.3,0.2,0.5,0.4,0.8,0.7c0.6,0.6,1.1,1.3,1.5,2.3c0.4,0.9,0.4,2,0.2,3.2c-0.2,1.2-0.6,2.2-1.3,2.9c-0.6,0.7-1.4,1.3-2.1,1.6
				c-0.4,0.2-0.7,0.3-1,0.4c-0.3,0.1-0.7,0.1-1.2,0.2c-0.4,0-1,0-1.5-0.1c-0.6-0.1-1.3-0.2-2.2-0.3c-1.1-0.2-2-0.4-2.7-0.5
				c-0.7-0.2-1.4-0.3-1.8-0.6c-0.5-0.2-0.9-0.5-1.2-0.9c-0.3-0.3-0.6-0.8-0.9-1.4c-0.5,0.4-0.9,0.7-1.4,0.9
				c-0.4,0.2-0.9,0.4-1.3,0.4c-0.5,0.1-1,0-1.6,0C128.7,463.5,128,463.3,127.1,463.2z M127,454.7c-0.6-0.1-1.1,0-1.5,0.4
				c-0.5,0.3-0.7,0.8-0.8,1.3c-0.1,0.5,0,1,0.3,1.5c0.3,0.5,0.8,0.8,1.3,0.9l4.2,0.7c0.6,0.1,1.1,0,1.5-0.4c0.5-0.3,0.7-0.8,0.8-1.3
				c0.1-0.5,0-1-0.3-1.5c-0.3-0.5-0.8-0.8-1.3-0.9L127,454.7z M138.3,456.7c-0.6-0.1-1.1,0-1.5,0.4c-0.5,0.3-0.7,0.8-0.8,1.3
				c-0.1,0.5,0,1,0.3,1.5c0.3,0.5,0.8,0.8,1.3,0.9l5.7,1c0.6,0.1,1.1,0,1.5-0.4c0.5-0.3,0.7-0.8,0.8-1.3s0-1-0.3-1.5
				c-0.3-0.5-0.8-0.8-1.3-0.9L138.3,456.7z"/>
		</g>
		<g>
			<path fill="#FFFFFF" d="M136.5,528c-0.1-1.3-0.4-2.1-0.7-2.5c-0.3-0.4-1.1-0.6-2.2-0.5l-3.8,0.4c-0.6,0.1-1.1,0.3-1.4,0.7
				c-0.3,0.4-0.5,0.9-0.4,1.6c0.1,0.7,0.4,1.2,0.9,1.5c0.5,0.3,1,0.4,1.4,0.3l2.4-0.2l0.4,4.2l-2.4,0.2c-0.8,0.1-1.7,0-2.5-0.2
				c-0.8-0.2-1.5-0.6-2.1-1.1c-0.6-0.5-1.1-1.1-1.5-1.9c-0.4-0.7-0.7-1.5-0.7-2.4c-0.1-1.1,0-2.1,0.4-2.9c0.4-0.8,0.8-1.4,1.2-1.8
				c0.3-0.3,0.6-0.6,0.9-0.8c0.3-0.2,0.7-0.4,1.1-0.6c0.4-0.2,1-0.3,1.6-0.5c0.6-0.1,1.4-0.2,2.3-0.3c1-0.1,1.8-0.2,2.5-0.2
				c0.6,0,1.2,0,1.6,0.2c0.4,0.1,0.8,0.4,1.2,0.7c0.3,0.3,0.7,0.7,1.1,1.3c0.3-0.7,0.7-1.2,1-1.6c0.3-0.4,0.7-0.7,1.2-0.9
				c0.5-0.2,1-0.4,1.7-0.5c0.7-0.1,1.5-0.2,2.6-0.3c1-0.1,1.7-0.2,2.4-0.2c0.6,0,1.2,0,1.6,0c0.4,0,0.8,0.1,1.1,0.2
				c0.3,0.1,0.6,0.2,1,0.4c0.8,0.4,1.5,1,2.1,1.8c0.6,0.8,0.9,1.8,1.1,3.1c0.1,0.7,0,1.4-0.1,2.1c-0.1,0.8-0.4,1.5-0.9,2.1
				c-0.4,0.7-1,1.2-1.8,1.7c-0.7,0.5-1.7,0.8-2.8,0.9l-2.4,0.2l-0.4-4.2l2.2-0.2c0.7-0.1,1.2-0.3,1.6-0.7c0.4-0.4,0.5-0.9,0.5-1.6
				c-0.1-0.6-0.3-1.1-0.8-1.4c-0.5-0.3-1-0.5-1.8-0.4l-4.2,0.4c-0.6,0.1-1,0.2-1.4,0.3c-0.3,0.1-0.6,0.3-0.8,0.6
				c-0.2,0.3-0.3,0.6-0.3,1c0,0.4,0,1,0.1,1.7L136.5,528z"/>
			<path fill="#FFFFFF" d="M148.3,516.4l-15-6.1c-0.7-0.3-1.4-0.5-1.9-0.5c-0.5,0-1.2,0-2,0.1c-0.4,0-0.7,0.1-1.1,0.2
				c-0.4,0.1-0.7,0.2-1,0.3c-0.3,0.2-0.5,0.4-0.7,0.7s-0.2,0.7-0.2,1.2c0.1,0.6,0.3,1.1,0.7,1.4c0.4,0.3,0.9,0.5,1.6,0.4l2.4-0.2
				l0.4,4.2l-2.3,0.2c-0.9,0.1-1.7,0-2.5-0.2c-0.8-0.2-1.5-0.6-2.1-1.1c-0.6-0.5-1.2-1.1-1.6-1.8c-0.4-0.7-0.7-1.5-0.8-2.4
				c-0.1-1.1,0-2,0.3-2.9c0.3-0.8,0.8-1.5,1.4-2.1c0.6-0.6,1.4-1,2.2-1.3c0.8-0.3,1.8-0.5,2.7-0.6c0.7-0.1,1.3-0.1,1.8-0.1
				c0.5,0,0.9,0,1.4,0c0.4,0,0.9,0.1,1.4,0.3c0.5,0.1,1,0.3,1.7,0.6l12.4,4.9l-0.8-7.5l4.2-0.4l1.3,12.4L148.3,516.4z"/>
		</g>
		<g>
			<path fill="#FFFFFF" d="M147.2,576.9L147.2,576.9c0.1,0.2,0.2,0.4,0.3,0.7c0.1,0.3,0.2,0.6,0.3,1.1c0.1,0.7,0.1,1.4-0.2,2.1
				c-0.2,0.7-0.6,1.2-1.1,1.7c-0.2,0.2-0.5,0.4-0.8,0.6c-0.3,0.2-0.7,0.3-1.1,0.5c-0.5,0.2-1.1,0.3-1.8,0.5
				c-0.7,0.2-1.7,0.3-2.8,0.5c-0.9,0.2-1.7,0.3-2.3,0.4c-0.6,0.1-1.1,0.1-1.6,0.1c-0.4,0-0.8,0-1.1-0.1c-0.3-0.1-0.7-0.2-1-0.3
				c-1-0.4-1.8-1-2.4-1.8c-0.6-0.8-1.1-1.8-1.3-2.9c-0.2-1.1-0.1-2.2,0.2-3.2c0.3-1,0.9-1.8,1.7-2.5c0.3-0.2,0.6-0.5,0.8-0.6
				c0.3-0.2,0.6-0.4,1-0.5c0.4-0.1,0.9-0.3,1.5-0.4c0.6-0.1,1.4-0.3,2.3-0.5c0.9-0.2,1.6-0.3,2.2-0.3c0.6-0.1,1.1-0.1,1.5-0.1
				c0.4,0,0.8,0,1.2,0c0.4,0,0.7,0.1,1.1,0.2l15.4,2.9l0.8,4.6L147.2,576.9z M142.1,579.9c0.6-0.1,1.1-0.4,1.4-0.9
				c0.3-0.5,0.4-1,0.3-1.5c-0.1-0.5-0.4-1-0.8-1.3c-0.4-0.3-1-0.5-1.6-0.3l-5.3,0.9c-0.6,0.1-1.1,0.4-1.4,0.9
				c-0.3,0.5-0.4,1-0.3,1.5s0.4,1,0.8,1.3c0.4,0.3,1,0.5,1.6,0.3L142.1,579.9z"/>
		</g>
		<g>
			<path fill="#FFFFFF" d="M181.3,643.8l-16.1-1c-0.8-0.1-1.5,0-2,0.2c-0.5,0.2-1.1,0.4-1.8,0.8c-0.3,0.1-0.7,0.3-1,0.5
				c-0.3,0.2-0.6,0.4-0.9,0.6c-0.2,0.2-0.4,0.5-0.4,0.9c-0.1,0.3,0,0.7,0.2,1.2c0.3,0.6,0.6,1,1.1,1.1c0.5,0.2,1,0.1,1.7-0.1l2.2-1
				l1.7,3.8l-2.1,1c-0.8,0.4-1.6,0.6-2.4,0.6c-0.8,0-1.6-0.1-2.4-0.4c-0.8-0.3-1.4-0.7-2.1-1.2c-0.6-0.6-1.1-1.2-1.5-2
				c-0.5-1-0.7-1.9-0.6-2.8c0-0.9,0.3-1.7,0.7-2.4c0.4-0.7,1-1.4,1.7-2c0.7-0.6,1.5-1.1,2.4-1.5c0.6-0.3,1.2-0.5,1.6-0.7
				c0.4-0.2,0.9-0.3,1.3-0.4c0.4-0.1,0.9-0.2,1.4-0.2c0.5,0,1.1,0,1.8,0l13.4,0.7l-3.1-6.9l3.8-1.7l5.2,11.4L181.3,643.8z"/>
			<path fill="#FFFFFF" d="M164.8,627.7l0,0.1c0.2,0.1,0.3,0.2,0.5,0.5c0.2,0.2,0.4,0.6,0.6,1c0.3,0.7,0.4,1.4,0.4,2.1
				c-0.1,0.7-0.3,1.4-0.6,1.9c-0.2,0.3-0.4,0.5-0.6,0.8c-0.2,0.2-0.6,0.5-1,0.7c-0.4,0.3-1,0.6-1.6,0.9c-0.7,0.3-1.5,0.7-2.6,1.2
				c-0.9,0.4-1.6,0.7-2.2,0.9c-0.6,0.2-1.1,0.4-1.5,0.5c-0.4,0.1-0.8,0.2-1.1,0.2c-0.3,0-0.7,0-1.1,0c-1-0.1-2-0.5-2.8-1.1
				c-0.8-0.6-1.5-1.5-2-2.5c-0.5-1-0.7-2.1-0.6-3.1c0.1-1,0.4-2,1-2.8c0.2-0.3,0.4-0.6,0.7-0.8c0.2-0.2,0.5-0.5,0.9-0.7
				c0.4-0.2,0.8-0.5,1.4-0.8c0.5-0.3,1.3-0.6,2.1-1c0.8-0.4,1.5-0.7,2.1-0.9s1-0.4,1.4-0.5c0.4-0.1,0.8-0.2,1.1-0.3
				c0.4-0.1,0.7-0.1,1.1-0.1l15.7-1.1l1.9,4.3L164.8,627.7z M160.6,631.9c0.6-0.3,0.9-0.7,1.1-1.2c0.2-0.5,0.2-1-0.1-1.5
				s-0.6-0.9-1.1-1.1c-0.5-0.2-1.1-0.2-1.6,0.1l-4.9,2.3c-0.6,0.3-0.9,0.7-1.1,1.2c-0.2,0.5-0.2,1,0.1,1.5c0.2,0.5,0.6,0.9,1.1,1.1
				c0.5,0.2,1.1,0.2,1.6-0.1L160.6,631.9z"/>
		</g>
		<g>
			<path fill="#FFFFFF" d="M191.1,701.3l4.8,2.1l-3.8,2.2l-4.8-2.1l-2.1-3.6l25.3-14.6l2.1,3.6L191.1,701.3z"/>
			<path fill="#FFFFFF" d="M188.7,690.8c-0.7,0.4-1.3,0.7-1.8,0.9c-0.5,0.2-1,0.4-1.4,0.5c-0.4,0.1-0.8,0.1-1.2,0.1
				c-0.4,0-0.8,0-1.2-0.1c-0.9-0.1-1.7-0.4-2.5-0.9c-0.8-0.5-1.4-1.2-1.8-2c-0.5-0.8-0.8-1.7-0.8-2.6c-0.1-0.9,0.1-1.8,0.4-2.6
				c0.2-0.4,0.4-0.8,0.5-1.1c0.2-0.3,0.4-0.7,0.7-1c0.3-0.3,0.7-0.6,1.1-1c0.5-0.3,1-0.7,1.7-1.1c0.8-0.4,1.4-0.8,1.9-1.1
				c0.5-0.3,1-0.5,1.5-0.6c0.5-0.1,0.9-0.1,1.4-0.1c0.5,0.1,1,0.2,1.6,0.4c0.1-0.6,0.2-1.1,0.4-1.6s0.5-0.9,0.9-1.2
				c0.4-0.4,0.9-0.8,1.5-1.2c0.6-0.4,1.4-0.9,2.4-1.4c0.8-0.5,1.4-0.8,2-1.1c0.5-0.3,1-0.5,1.4-0.6c0.4-0.1,0.8-0.2,1.1-0.3
				c0.3,0,0.7,0,1.1,0c0.8,0,1.7,0.3,2.6,0.8c0.9,0.5,1.6,1.3,2.2,2.3c0.6,1.1,0.9,2.1,0.9,3.1c0,1-0.2,1.9-0.6,2.6
				c-0.2,0.4-0.4,0.7-0.5,1c-0.2,0.3-0.4,0.6-0.8,0.9c-0.3,0.3-0.8,0.6-1.2,0.9c-0.5,0.3-1.1,0.7-1.9,1.2c-0.9,0.5-1.8,1-2.4,1.4
				c-0.7,0.4-1.3,0.6-1.8,0.7c-0.5,0.1-1,0.2-1.5,0.1s-1-0.2-1.6-0.4c-0.1,0.6-0.3,1.2-0.4,1.6c-0.2,0.4-0.4,0.8-0.8,1.2
				c-0.3,0.4-0.8,0.7-1.3,1C190.1,689.9,189.4,690.3,188.7,690.8z M183.1,684.4c-0.5,0.3-0.8,0.7-1,1.3c-0.1,0.6-0.1,1.1,0.2,1.5
				c0.3,0.5,0.7,0.8,1.2,0.9c0.6,0.2,1.1,0.1,1.6-0.2l3.7-2.1c0.5-0.3,0.8-0.7,1-1.3c0.1-0.6,0.1-1.1-0.2-1.5
				c-0.3-0.5-0.7-0.8-1.2-0.9c-0.5-0.2-1.1-0.1-1.6,0.2L183.1,684.4z M193.1,678.6c-0.5,0.3-0.8,0.7-1,1.3c-0.1,0.6-0.1,1.1,0.2,1.5
				c0.3,0.5,0.7,0.8,1.2,0.9c0.6,0.2,1.1,0.1,1.6-0.2l5-2.9c0.5-0.3,0.8-0.7,1-1.3c0.1-0.6,0.1-1.1-0.2-1.5
				c-0.3-0.5-0.7-0.8-1.2-0.9c-0.5-0.2-1.1-0.1-1.6,0.2L193.1,678.6z"/>
		</g>
		<g>
			<path fill="#FFFFFF" d="M252.5,735.4l-15.5,4.6c-0.8,0.2-1.4,0.5-1.8,0.8c-0.4,0.3-0.9,0.8-1.5,1.3c-0.3,0.2-0.5,0.5-0.8,0.8
				c-0.3,0.3-0.5,0.6-0.6,0.9c-0.1,0.3-0.2,0.6-0.1,1c0,0.3,0.3,0.7,0.6,1.1c0.4,0.4,0.9,0.7,1.4,0.7c0.5,0,1-0.2,1.5-0.7l1.7-1.7
				l2.9,3l-1.6,1.6c-0.6,0.6-1.3,1.1-2.1,1.4c-0.8,0.3-1.6,0.5-2.4,0.5c-0.8,0-1.6-0.1-2.4-0.5c-0.8-0.3-1.5-0.8-2.1-1.4
				c-0.8-0.8-1.3-1.6-1.6-2.4c-0.3-0.8-0.3-1.7-0.2-2.5c0.1-0.8,0.4-1.7,0.9-2.4c0.5-0.8,1-1.5,1.7-2.2c0.5-0.5,0.9-0.9,1.3-1.2
				s0.7-0.6,1.1-0.8c0.4-0.2,0.8-0.5,1.2-0.6c0.4-0.2,1-0.4,1.7-0.6l12.8-4l-5.3-5.4l3-2.9l8.8,8.9L252.5,735.4z"/>
			<path fill="#FFFFFF" d="M220.8,733.6l3.2,3.3l2.4-2.4l2.6,2.6l-5.2,5.1l-8.8-8.9l3-2.9l22.8-12.5l3.1,3.2L220.8,733.6z"/>
		</g>
		<g>
			<path fill="#FFFFFF" d="M270.4,777.6l3.5,3l2.2-2.6l2.8,2.4l-4.7,5.6l-9.6-8l2.7-3.2l21.6-14.6l3.4,2.9L270.4,777.6z"/>
		</g>
		<g>
			<path fill="#FFFFFF" d="M348.8,799.9l-13.1,9.4c-0.7,0.5-1.1,0.9-1.4,1.4c-0.3,0.5-0.6,1-1,1.7c-0.2,0.3-0.3,0.7-0.5,1
				c-0.2,0.4-0.2,0.7-0.3,1c0,0.3,0,0.6,0.2,0.9c0.2,0.3,0.5,0.6,0.9,0.8c0.6,0.3,1.1,0.3,1.6,0.2c0.5-0.2,0.9-0.5,1.2-1.1l1.1-2.1
				l3.7,1.9l-1,2.1c-0.4,0.8-0.9,1.4-1.5,2c-0.6,0.5-1.3,0.9-2.1,1.2c-0.8,0.3-1.6,0.4-2.4,0.3c-0.8,0-1.6-0.3-2.4-0.6
				c-1-0.5-1.7-1.1-2.2-1.8c-0.5-0.7-0.9-1.5-1-2.3c-0.1-0.8-0.1-1.7,0.1-2.6c0.2-0.9,0.5-1.8,0.9-2.7c0.3-0.6,0.6-1.2,0.8-1.6
				c0.2-0.4,0.5-0.8,0.8-1.2c0.3-0.4,0.6-0.7,1-1c0.4-0.3,0.8-0.7,1.4-1.1l10.8-7.8l-6.8-3.4l1.9-3.7l11.2,5.6L348.8,799.9z"/>
			<path fill="#FFFFFF" d="M323.8,801.9l0-0.1c-0.2,0-0.4,0-0.7,0c-0.3-0.1-0.6-0.2-1.1-0.4c-0.7-0.3-1.2-0.8-1.6-1.4
				c-0.4-0.6-0.6-1.2-0.7-1.9c0-0.4,0-0.7,0-1c0-0.3,0.1-0.7,0.3-1.2c0.2-0.5,0.4-1,0.7-1.7c0.3-0.7,0.7-1.5,1.2-2.6
				c0.4-0.9,0.8-1.6,1.1-2.1c0.3-0.5,0.6-1,0.8-1.3c0.3-0.4,0.5-0.6,0.7-0.8c0.2-0.2,0.5-0.4,0.8-0.6c0.9-0.6,1.9-0.9,2.9-0.9
				c1,0,2.1,0.2,3.1,0.7c1,0.5,1.8,1.2,2.4,2.1c0.6,0.9,0.9,1.8,1,2.8c0,0.4,0.1,0.8,0,1.1c0,0.3-0.1,0.7-0.2,1.1
				c-0.1,0.4-0.3,0.9-0.6,1.5c-0.3,0.6-0.6,1.3-1,2.1c-0.4,0.8-0.8,1.5-1,2c-0.3,0.5-0.6,0.9-0.8,1.3c-0.2,0.4-0.5,0.7-0.7,0.9
				c-0.3,0.3-0.5,0.5-0.8,0.8l-11.5,10.7l-4.2-2.1L323.8,801.9z M324.4,796c-0.3,0.6-0.3,1.1-0.1,1.6c0.2,0.5,0.5,0.9,1,1.2
				c0.5,0.2,1,0.3,1.5,0.1c0.5-0.2,0.9-0.5,1.2-1.1l2.4-4.8c0.3-0.6,0.3-1.1,0.1-1.6c-0.2-0.5-0.5-0.9-1-1.2c-0.5-0.2-1-0.3-1.5-0.1
				c-0.5,0.2-0.9,0.5-1.2,1.1L324.4,796z"/>
		</g>
		<g>
			<path fill="#FFFFFF" d="M384.6,831.8l5-1.5l-1.5,4.2l-5,1.5l-3.9-1.4l10-27.5l3.9,1.4L384.6,831.8z"/>
		</g>
		<g>
			<path fill="#FFFFFF" d="M462.3,824.7l-9,13.4c-0.5,0.7-0.7,1.3-0.8,1.8c-0.1,0.5-0.2,1.2-0.3,2c0,0.4-0.1,0.7-0.1,1.1
				c0,0.4,0,0.8,0.1,1.1c0.1,0.3,0.3,0.6,0.5,0.8c0.3,0.2,0.6,0.4,1.2,0.4c0.6,0.1,1.1-0.1,1.5-0.4c0.4-0.3,0.6-0.8,0.7-1.5l0.3-2.4
				l4.2,0.4l-0.2,2.3c-0.1,0.9-0.3,1.7-0.8,2.4c-0.4,0.7-0.9,1.3-1.5,1.9c-0.6,0.5-1.3,0.9-2.1,1.2c-0.8,0.3-1.6,0.3-2.5,0.3
				c-1.1-0.1-2-0.4-2.7-0.9c-0.7-0.5-1.3-1.1-1.8-1.8c-0.4-0.7-0.7-1.6-0.9-2.4c-0.1-0.9-0.2-1.8-0.1-2.8c0.1-0.7,0.2-1.3,0.2-1.8
				c0.1-0.5,0.2-0.9,0.3-1.4c0.1-0.4,0.3-0.8,0.5-1.3c0.2-0.4,0.6-0.9,0.9-1.5l7.4-11.2l-7.5-0.8l0.4-4.2l12.4,1.3L462.3,824.7z"/>
			<path fill="#FFFFFF" d="M439.8,822.7l8.3,0.9l-0.4,3.9l-8.2,20.2l-4.4-0.5l8.5-20.2l-4.1-0.4l-0.9,8.3l-4.2-0.4l0.9-8.3l-2-0.2
				l0.4-3.9l2,0.2l0.5-4.3l4.2,0.4L439.8,822.7z"/>
		</g>
		<g>
			<path fill="#FFFFFF" d="M517.4,842.2l3.9-3.4l0.4,4.4l-3.9,3.4l-4.2,0.4l-2.5-29.1l4.2-0.4L517.4,842.2z"/>
			<path fill="#FFFFFF" d="M498.9,844.2l4.6-0.4l-0.3-3.4l3.7-0.3l0.6,7.3l-12.4,1.1l-0.4-4.2l5-25.6l4.4-0.4L498.9,844.2z"/>
		</g>
		<g>
			<path fill="#FFFFFF" d="M578.2,809.8l-4,15.6c-0.2,0.8-0.3,1.4-0.2,2c0.1,0.5,0.2,1.2,0.4,2c0.1,0.3,0.2,0.7,0.3,1.1
				c0.1,0.4,0.3,0.7,0.5,1c0.2,0.3,0.4,0.5,0.8,0.6c0.3,0.1,0.7,0.1,1.2,0c0.6-0.2,1.1-0.4,1.3-0.9c0.3-0.4,0.3-1,0.2-1.6l-0.6-2.3
				l4.1-1l0.5,2.2c0.2,0.8,0.2,1.7,0.1,2.5c-0.1,0.8-0.4,1.6-0.8,2.3c-0.4,0.7-0.9,1.3-1.6,1.8c-0.7,0.5-1.4,0.9-2.3,1.1
				c-1.1,0.3-2,0.3-2.9,0.1c-0.9-0.2-1.6-0.6-2.3-1.1c-0.7-0.5-1.2-1.2-1.6-2c-0.4-0.8-0.8-1.7-1-2.6c-0.2-0.7-0.3-1.3-0.4-1.7
				c-0.1-0.5-0.1-0.9-0.2-1.4c0-0.4,0-0.9,0.1-1.4c0.1-0.5,0.2-1.1,0.4-1.7l3.2-13l-7.3,1.8l-1-4.1l12.1-2.9L578.2,809.8z"/>
			<path fill="#FFFFFF" d="M563.3,813.4l-4,15.6c-0.2,0.8-0.3,1.4-0.2,2c0.1,0.5,0.2,1.2,0.4,2c0.1,0.3,0.2,0.7,0.3,1.1
				c0.1,0.4,0.3,0.7,0.5,1c0.2,0.3,0.4,0.5,0.8,0.6c0.3,0.1,0.7,0.1,1.2,0c0.6-0.1,1.1-0.4,1.3-0.9c0.3-0.4,0.3-1,0.2-1.6l-0.6-2.3
				l4.1-1l0.5,2.2c0.2,0.9,0.2,1.7,0.1,2.5c-0.1,0.8-0.4,1.6-0.8,2.3c-0.4,0.7-0.9,1.3-1.6,1.8c-0.7,0.5-1.4,0.9-2.3,1.1
				c-1.1,0.3-2,0.3-2.9,0.1c-0.9-0.2-1.6-0.6-2.3-1.1c-0.7-0.5-1.2-1.2-1.6-2c-0.4-0.8-0.8-1.7-1-2.6c-0.2-0.7-0.3-1.3-0.4-1.7
				c-0.1-0.5-0.1-0.9-0.2-1.4c0-0.4,0-0.9,0.1-1.4c0.1-0.5,0.2-1.1,0.4-1.7l3.2-13l-7.3,1.8l-1-4.1l12.1-2.9L563.3,813.4z"/>
		</g>
		<g>
			<path fill="#FFFFFF" d="M635,808.5l2.7-4.4l1.7,4.1l-2.7,4.4l-3.9,1.6l-10.9-27.1l3.9-1.6L635,808.5z"/>
			<path fill="#FFFFFF" d="M614.9,803.1l0.1,0c0.1-0.2,0.3-0.3,0.5-0.5c0.2-0.2,0.6-0.3,1-0.5c0.7-0.3,1.4-0.4,2.1-0.3
				c0.7,0.1,1.3,0.3,1.9,0.7c0.3,0.2,0.5,0.4,0.7,0.6c0.2,0.3,0.5,0.6,0.7,1c0.2,0.4,0.5,1,0.8,1.7c0.3,0.7,0.7,1.6,1.1,2.6
				c0.4,0.9,0.6,1.6,0.8,2.2c0.2,0.6,0.4,1.1,0.5,1.5c0.1,0.4,0.1,0.8,0.1,1.1c0,0.3,0,0.7-0.1,1.1c-0.2,1-0.6,2-1.3,2.8
				c-0.7,0.8-1.5,1.4-2.6,1.8c-1.1,0.4-2.1,0.6-3.1,0.4c-1-0.1-2-0.5-2.8-1.1c-0.3-0.2-0.6-0.5-0.8-0.7c-0.2-0.2-0.5-0.5-0.7-0.9
				c-0.2-0.4-0.5-0.8-0.7-1.4c-0.3-0.6-0.6-1.3-0.9-2.2c-0.3-0.8-0.6-1.5-0.8-2.1c-0.2-0.6-0.3-1-0.4-1.5c-0.1-0.4-0.2-0.8-0.2-1.2
				c0-0.4-0.1-0.7-0.1-1.1l-0.4-15.7l4.3-1.8L614.9,803.1z M618.9,807.4c-0.2-0.6-0.6-1-1.1-1.2c-0.5-0.2-1-0.2-1.5,0
				c-0.5,0.2-0.9,0.6-1.1,1.1c-0.2,0.5-0.2,1.1,0,1.6l2,5c0.2,0.6,0.6,1,1.1,1.2c0.5,0.2,1,0.2,1.5,0c0.5-0.2,0.9-0.6,1.1-1.1
				c0.2-0.5,0.2-1.1,0-1.6L618.9,807.4z"/>
		</g>
		<g>
			<path fill="#FFFFFF" d="M684.6,769.7c-1,0.7-1.6,1.4-1.9,1.9c-0.2,0.5,0,1.2,0.6,2.1l2.2,3.1c0.3,0.5,0.8,0.8,1.3,0.9
				c0.5,0.1,1,0,1.6-0.4c0.6-0.4,0.9-0.9,0.9-1.5c0-0.6-0.2-1-0.4-1.4l-1.4-1.9l3.4-2.4l1.4,2c0.5,0.7,0.8,1.4,1,2.3
				c0.2,0.8,0.2,1.6,0,2.4c-0.2,0.8-0.4,1.5-0.9,2.2c-0.4,0.7-1,1.3-1.7,1.8c-0.9,0.7-1.8,1-2.7,1.1c-0.9,0.1-1.6,0-2.2-0.1
				c-0.4-0.1-0.8-0.2-1.2-0.4c-0.4-0.2-0.7-0.4-1.1-0.7c-0.4-0.3-0.8-0.7-1.2-1.2c-0.4-0.5-0.9-1.1-1.5-1.9c-0.6-0.8-1-1.5-1.4-2
				c-0.3-0.5-0.6-1-0.7-1.5c-0.1-0.4-0.1-0.9,0-1.3c0.1-0.4,0.3-1,0.6-1.6c-0.8,0-1.4,0-1.9-0.1c-0.5-0.1-0.9-0.3-1.3-0.6
				c-0.4-0.3-0.8-0.7-1.2-1.2c-0.4-0.5-0.9-1.2-1.5-2.1c-0.6-0.8-1-1.4-1.3-2c-0.3-0.5-0.6-1-0.8-1.4c-0.2-0.4-0.3-0.8-0.4-1.1
				c-0.1-0.3-0.1-0.7-0.1-1.1c0-0.9,0.2-1.8,0.5-2.7c0.4-0.9,1.1-1.7,2.1-2.5c0.5-0.4,1.2-0.7,1.9-1c0.7-0.3,1.5-0.4,2.3-0.3
				s1.6,0.3,2.3,0.7s1.5,1.1,2.2,2l1.4,1.9l-3.4,2.4l-1.3-1.8c-0.4-0.5-0.8-0.9-1.4-1c-0.5-0.1-1.1,0-1.6,0.4
				c-0.5,0.4-0.8,0.8-0.8,1.4c-0.1,0.6,0.1,1.1,0.5,1.7l2.4,3.4c0.3,0.5,0.6,0.8,0.9,1.1s0.6,0.4,0.9,0.4c0.3,0,0.7-0.1,1.1-0.2
				c0.4-0.2,0.9-0.5,1.4-0.9L684.6,769.7z"/>
			<path fill="#FFFFFF" d="M662.9,769.7l6.8-4.8l2.3,3.2l7.3,20.6l-3.6,2.6l-7.1-20.7l-3.4,2.4l4.8,6.8l-3.4,2.4l-4.8-6.8l-1.6,1.2
				l-2.3-3.2l1.6-1.2l-2.5-3.5l3.4-2.4L662.9,769.7z"/>
		</g>
		<g>
			<path fill="#FFFFFF" d="M734,733.3l1-5.1l3,3.2l-1,5.1l-3.1,2.9L714,718l3.1-2.9L734,733.3z"/>
			<path fill="#FFFFFF" d="M722.8,743.7l1-5.1l3,3.2l-1,5.1l-3.1,2.9l-20-21.4l3.1-2.9L722.8,743.7z"/>
		</g>
		<g>
			<path fill="#FFFFFF" d="M773.4,685.3l-0.1-5.2l3.6,2.6l0.1,5.2l-2.4,3.4l-23.9-16.9l2.4-3.4L773.4,685.3z"/>
			<path fill="#FFFFFF" d="M757.5,694.2l-0.1,0c0,0.2,0,0.4-0.1,0.7s-0.3,0.6-0.6,1c-0.4,0.6-1,1.1-1.6,1.4c-0.7,0.3-1.3,0.5-2,0.4
				c-0.4,0-0.7-0.1-1-0.2c-0.3-0.1-0.7-0.2-1.1-0.5c-0.4-0.2-1-0.5-1.6-1c-0.6-0.4-1.4-1-2.4-1.6c-0.8-0.6-1.4-1-1.9-1.4
				c-0.5-0.4-0.9-0.7-1.2-1c-0.3-0.3-0.5-0.6-0.7-0.9c-0.2-0.3-0.3-0.6-0.5-0.9c-0.4-1-0.6-2-0.4-3c0.1-1,0.5-2,1.2-3
				c0.7-0.9,1.5-1.6,2.4-2.1c0.9-0.4,1.9-0.6,2.9-0.6c0.4,0,0.8,0.1,1.1,0.1c0.3,0.1,0.7,0.2,1.1,0.4c0.4,0.2,0.8,0.4,1.4,0.8
				c0.5,0.3,1.2,0.8,2,1.3c0.7,0.5,1.3,1,1.8,1.3s0.9,0.7,1.2,1c0.3,0.3,0.6,0.6,0.8,0.9c0.2,0.3,0.4,0.6,0.7,0.9l8.8,13l-2.7,3.8
				L757.5,694.2z M751.8,692.8c0.5,0.4,1,0.5,1.6,0.4c0.5-0.1,1-0.4,1.3-0.8c0.3-0.4,0.4-0.9,0.4-1.5c-0.1-0.6-0.4-1-0.9-1.4
				l-4.4-3.1c-0.5-0.4-1-0.5-1.6-0.4c-0.5,0.1-1,0.4-1.3,0.8c-0.3,0.4-0.4,0.9-0.4,1.5c0.1,0.6,0.4,1,0.9,1.4L751.8,692.8z"/>
		</g>
		<g>
			<path fill="#FFFFFF" d="M786.7,618.7l8.6,13.7c0.4,0.7,0.9,1.2,1.3,1.5c0.4,0.3,1,0.7,1.7,1.1c0.3,0.2,0.6,0.4,1,0.5
				c0.4,0.2,0.7,0.3,1,0.3c0.3,0,0.6,0,1-0.1c0.3-0.1,0.6-0.4,0.9-0.9c0.3-0.5,0.4-1.1,0.3-1.6c-0.1-0.5-0.5-0.9-1.1-1.3l-2.1-1.2
				l2.1-3.6l2,1.1c0.8,0.4,1.4,1,1.9,1.7c0.5,0.7,0.9,1.4,1.1,2.2c0.2,0.8,0.3,1.6,0.2,2.4s-0.3,1.6-0.8,2.4
				c-0.5,0.9-1.2,1.7-1.9,2.1c-0.7,0.5-1.5,0.8-2.4,0.9c-0.8,0.1-1.7,0-2.6-0.2c-0.9-0.2-1.7-0.6-2.6-1.1c-0.6-0.4-1.1-0.7-1.5-0.9
				c-0.4-0.3-0.8-0.5-1.1-0.8c-0.3-0.3-0.6-0.6-0.9-1c-0.3-0.4-0.6-0.9-1-1.5l-7.2-11.3l-3.8,6.5l-3.6-2.1l6.2-10.8L786.7,618.7z"/>
			<path fill="#FFFFFF" d="M795.8,641.5c0.9,0.5,1.5,1.1,2,1.8c0.5,0.7,0.8,1.4,1,2.2c0.2,0.8,0.2,1.6,0.1,2.4
				c-0.1,0.8-0.4,1.5-0.8,2.3c-0.4,0.7-0.9,1.3-1.6,1.8c-0.6,0.5-1.3,0.9-2.1,1.1c-0.8,0.2-1.6,0.3-2.4,0.2
				c-0.8-0.1-1.7-0.4-2.5-0.9l-14.9-8.6c-0.9-0.5-1.5-1.1-2-1.8c-0.5-0.7-0.8-1.4-1-2.2c-0.2-0.8-0.2-1.6-0.1-2.4
				c0.1-0.8,0.4-1.5,0.8-2.3c0.4-0.7,0.9-1.3,1.6-1.8c0.6-0.5,1.3-0.9,2.1-1.1c0.8-0.2,1.6-0.3,2.4-0.2c0.8,0.1,1.7,0.4,2.5,0.9
				L795.8,641.5z M778.8,636.6c-0.5-0.3-1.1-0.4-1.6-0.3c-0.5,0.1-1,0.5-1.3,1s-0.4,1-0.2,1.6c0.2,0.5,0.5,0.9,1,1.2l14.9,8.6
				c0.5,0.3,1,0.4,1.6,0.3c0.5-0.1,1-0.5,1.3-1c0.3-0.5,0.4-1,0.2-1.6c-0.2-0.5-0.5-0.9-1-1.2L778.8,636.6z"/>
		</g>
		<g>
			<path fill="#FFFFFF" d="M822.1,574.6l-1.5-5l4.2,1.5l1.5,5l-1.4,3.9l-27.5-10l1.4-3.9L822.1,574.6z"/>
			<path fill="#FFFFFF" d="M796.8,584.2l2.9-7.8l3.7,1.3l17.6,12.8l-1.5,4.2L802,581.6l-1.4,3.9l7.8,2.9l-1.4,3.9l-7.8-2.9l-0.7,1.9
				l-3.7-1.3l0.7-1.9l-4.1-1.5l1.4-3.9L796.8,584.2z"/>
		</g>
		<g>
			<path fill="#FFFFFF" d="M812.7,506.1l13.1,9.4c0.7,0.5,1.2,0.8,1.8,0.9c0.5,0.1,1.2,0.2,2,0.4c0.4,0,0.7,0.1,1.1,0.1
				c0.4,0,0.8,0,1.1-0.1c0.3-0.1,0.6-0.2,0.8-0.5c0.2-0.2,0.4-0.6,0.5-1.1c0.1-0.6,0-1.1-0.3-1.6c-0.3-0.4-0.8-0.7-1.5-0.8l-2.4-0.3
				l0.6-4.2l2.3,0.3c0.9,0.1,1.7,0.4,2.4,0.8c0.7,0.4,1.3,1,1.8,1.6c0.5,0.6,0.9,1.4,1.1,2.2c0.2,0.8,0.3,1.6,0.2,2.5
				c-0.1,1.1-0.5,2-1,2.7c-0.5,0.7-1.1,1.3-1.9,1.7c-0.7,0.4-1.6,0.7-2.5,0.8c-0.9,0.1-1.8,0.1-2.8,0c-0.7-0.1-1.3-0.2-1.8-0.3
				c-0.5-0.1-0.9-0.2-1.3-0.4c-0.4-0.1-0.8-0.3-1.2-0.6c-0.4-0.2-0.9-0.6-1.5-1l-10.9-7.7l-1,7.5l-4.2-0.6l1.7-12.4L812.7,506.1z"/>
			<path fill="#FFFFFF" d="M828.1,523.6c0.8,0.1,1.5,0.2,2,0.4c0.5,0.1,1,0.3,1.4,0.5c0.4,0.2,0.7,0.4,1,0.6
				c0.3,0.2,0.6,0.5,0.9,0.8c0.6,0.6,1.1,1.4,1.4,2.3c0.3,0.9,0.4,1.8,0.2,2.7c-0.1,1-0.5,1.8-1,2.6c-0.5,0.8-1.1,1.4-1.9,1.8
				c-0.4,0.2-0.8,0.4-1.1,0.6c-0.4,0.1-0.7,0.2-1.2,0.3c-0.4,0.1-0.9,0.1-1.5,0.1c-0.6,0-1.2-0.1-2-0.2c-0.9-0.1-1.6-0.2-2.2-0.3
				c-0.6-0.1-1.1-0.3-1.6-0.5c-0.4-0.2-0.8-0.5-1.2-0.8c-0.3-0.3-0.7-0.8-1-1.3c-0.4,0.4-0.9,0.8-1.3,1c-0.4,0.2-0.9,0.4-1.4,0.4
				c-0.5,0.1-1.2,0.1-1.9,0c-0.7-0.1-1.7-0.2-2.8-0.3c-0.9-0.1-1.6-0.2-2.2-0.4c-0.6-0.1-1.1-0.3-1.5-0.4c-0.4-0.1-0.8-0.3-1.1-0.5
				c-0.3-0.2-0.6-0.4-0.9-0.7c-0.6-0.6-1.2-1.3-1.5-2.2c-0.4-0.9-0.5-2-0.3-3.2c0.2-1.2,0.6-2.2,1.2-3c0.6-0.8,1.3-1.3,2.1-1.7
				c0.4-0.2,0.7-0.3,1-0.4c0.3-0.1,0.7-0.2,1.1-0.2c0.4,0,1,0,1.6,0c0.6,0,1.3,0.1,2.2,0.2c1.1,0.1,2,0.3,2.7,0.4
				c0.7,0.1,1.4,0.3,1.9,0.5c0.5,0.2,0.9,0.5,1.3,0.8c0.3,0.3,0.7,0.8,1,1.3c0.5-0.4,0.9-0.8,1.3-1c0.4-0.2,0.8-0.4,1.3-0.5
				c0.5-0.1,1-0.1,1.6,0C826.5,523.4,827.2,523.5,828.1,523.6z M817.2,530.5c0.6,0.1,1.1-0.1,1.5-0.4c0.4-0.4,0.7-0.8,0.8-1.3
				c0.1-0.5-0.1-1-0.4-1.5c-0.3-0.5-0.8-0.7-1.4-0.8l-5.7-0.8c-0.6-0.1-1.1,0.1-1.5,0.4c-0.5,0.4-0.7,0.8-0.8,1.3
				c-0.1,0.5,0.1,1,0.4,1.5c0.3,0.5,0.8,0.7,1.4,0.8L817.2,530.5z M828.6,532.1c0.6,0.1,1.1-0.1,1.5-0.4c0.4-0.4,0.7-0.8,0.8-1.3
				c0.1-0.5-0.1-1-0.4-1.5c-0.3-0.5-0.8-0.7-1.4-0.8l-4.2-0.6c-0.6-0.1-1.1,0.1-1.5,0.4c-0.5,0.4-0.7,0.8-0.8,1.3
				c-0.1,0.5,0.1,1,0.4,1.5c0.3,0.5,0.8,0.7,1.4,0.8L828.6,532.1z"/>
		</g>
		<g>
			<path fill="#FFFFFF" d="M831.4,452.4l-3.1-4.2h4.4l3.1,4.2v4.2h-29.2v-4.2H831.4z"/>
			<path fill="#FFFFFF" d="M810.5,462.7l14.3,7.6c0.7,0.4,1.3,0.6,1.9,0.7c0.5,0.1,1.2,0.1,2,0.1c0.4,0,0.7,0,1.1,0
				c0.4,0,0.7-0.1,1-0.2c0.3-0.1,0.6-0.3,0.8-0.6c0.2-0.3,0.3-0.7,0.3-1.2c0-0.6-0.2-1.1-0.5-1.5c-0.4-0.4-0.9-0.6-1.6-0.6h-2.4
				v-4.2h2.3c0.9,0,1.7,0.2,2.5,0.5c0.8,0.3,1.4,0.8,2,1.3c0.6,0.6,1,1.2,1.4,2c0.3,0.8,0.5,1.6,0.5,2.5c0,1.1-0.2,2-0.6,2.8
				c-0.4,0.8-0.9,1.4-1.6,1.9c-0.7,0.5-1.5,0.9-2.3,1.1c-0.9,0.2-1.8,0.3-2.8,0.3c-0.7,0-1.3,0-1.8,0c-0.5,0-0.9-0.1-1.4-0.2
				c-0.4-0.1-0.9-0.2-1.3-0.4c-0.4-0.2-1-0.5-1.6-0.8l-11.9-6.2v7.6h-4.2v-12.5H810.5z"/>
		</g>
		<g>
			<path fill="#FFFFFF" d="M798.1,390.3l15.4,5c0.8,0.3,1.4,0.4,2,0.3c0.5,0,1.2-0.1,2-0.3c0.3-0.1,0.7-0.1,1.1-0.2
				c0.4-0.1,0.7-0.2,1-0.4c0.3-0.2,0.5-0.4,0.6-0.7c0.2-0.3,0.2-0.7,0.1-1.2c-0.1-0.6-0.4-1.1-0.8-1.4c-0.4-0.3-1-0.4-1.6-0.3
				l-2.3,0.4l-0.7-4.1l2.3-0.4c0.9-0.2,1.7-0.1,2.5,0.1c0.8,0.2,1.5,0.5,2.2,1c0.7,0.5,1.2,1,1.7,1.7c0.5,0.7,0.8,1.5,0.9,2.3
				c0.2,1.1,0.2,2-0.1,2.9c-0.3,0.8-0.7,1.6-1.3,2.2c-0.6,0.6-1.3,1.1-2.1,1.5c-0.8,0.4-1.7,0.7-2.7,0.8c-0.7,0.1-1.3,0.2-1.8,0.3
				c-0.5,0.1-0.9,0.1-1.4,0.1c-0.4,0-0.9-0.1-1.4-0.2c-0.5-0.1-1-0.3-1.7-0.5l-12.8-4l1.3,7.4l-4.1,0.7l-2.2-12.3L798.1,390.3z"/>
			<path fill="#FFFFFF" d="M824,413.9l-1.4-8.2l-7.8,1.4c0.4,0.3,0.8,0.7,1.2,1.3c0.4,0.5,0.6,1.2,0.7,1.9c0.2,1.4,0,2.6-0.7,3.6
				c-0.7,1-1.9,1.7-3.6,2l-7.4,1.3c-1,0.2-1.9,0.2-2.7,0c-0.8-0.2-1.5-0.5-2.2-1c-0.6-0.5-1.2-1.1-1.6-1.7c-0.4-0.7-0.7-1.4-0.8-2.3
				c-0.1-0.8-0.1-1.6,0-2.4c0.2-0.8,0.4-1.5,0.9-2.2c0.4-0.7,1-1.2,1.7-1.7c0.7-0.5,1.5-0.8,2.5-1l1.2-0.2l0.7,4.1l-1.1,0.2
				c-0.7,0.1-1.2,0.4-1.5,0.9c-0.3,0.5-0.4,1-0.3,1.6c0.1,0.6,0.4,1.1,0.8,1.3c0.4,0.3,1,0.3,1.7,0.2l6.8-1.2c0.6-0.1,1-0.4,1.4-0.8
				c0.3-0.4,0.5-0.9,0.4-1.5c-0.1-0.3-0.2-0.6-0.3-0.9c-0.2-0.2-0.3-0.4-0.5-0.5c-0.2-0.1-0.4-0.2-0.6-0.3c-0.2-0.1-0.4-0.1-0.5-0.1
				l-0.6-3.6l15.5-2.7l2.1,11.8L824,413.9z"/>
		</g>
		<g>
			<path fill="#FFFFFF" d="M802.2,348.5l-2.8-7.8l-7.4,2.7c0.5,0.2,1,0.6,1.4,1.1c0.5,0.5,0.8,1.1,1.1,1.8c0.5,1.3,0.5,2.6,0,3.7
				c-0.5,1.1-1.6,2-3.2,2.6l-7.1,2.6c-0.9,0.3-1.8,0.5-2.6,0.4c-0.8-0.1-1.6-0.3-2.3-0.6c-0.7-0.4-1.3-0.8-1.9-1.4
				c-0.5-0.6-0.9-1.3-1.2-2.1c-0.3-0.8-0.4-1.6-0.4-2.4c0-0.8,0.2-1.6,0.5-2.3c0.3-0.7,0.8-1.4,1.4-2s1.4-1,2.3-1.4l1.2-0.4l1.4,3.9
				l-1,0.4c-0.7,0.2-1.1,0.6-1.4,1.1c-0.2,0.5-0.2,1.1,0,1.7c0.2,0.6,0.6,1,1,1.2c0.5,0.2,1,0.2,1.7-0.1l6.4-2.3
				c0.5-0.2,0.9-0.5,1.2-1c0.3-0.5,0.3-1,0.1-1.5c-0.1-0.3-0.3-0.6-0.5-0.8c-0.2-0.2-0.4-0.3-0.6-0.4c-0.2-0.1-0.4-0.2-0.6-0.2
				c-0.2,0-0.4,0-0.5-0.1l-1.3-3.5l14.8-5.4l4.1,11.3L802.2,348.5z"/>
		</g>
		<g>
			<path fill="#FFFFFF" d="M763.8,284c0.8-0.6,1.6-0.9,2.5-1.1c0.8-0.2,1.6-0.1,2.4,0c0.8,0.2,1.5,0.5,2.2,0.9
				c0.7,0.5,1.2,1,1.7,1.7c0.5,0.7,0.8,1.4,1,2.2s0.2,1.6,0.1,2.4c-0.1,0.8-0.4,1.5-0.8,2.3c-0.4,0.7-1.1,1.4-1.9,1.9l-14.2,9.7
				c-0.8,0.6-1.6,0.9-2.5,1.1c-0.8,0.2-1.6,0.1-2.4,0s-1.5-0.5-2.2-0.9c-0.7-0.5-1.2-1-1.7-1.7c-0.5-0.7-0.8-1.4-1-2.2
				c-0.2-0.8-0.2-1.6-0.1-2.4c0.1-0.8,0.4-1.5,0.8-2.3c0.4-0.7,1.1-1.4,1.9-1.9L763.8,284z M752,297.2c-0.5,0.3-0.8,0.8-0.9,1.3
				c-0.1,0.5,0,1.1,0.3,1.6c0.3,0.5,0.8,0.8,1.3,0.9c0.5,0.1,1.1,0,1.6-0.4l14.2-9.7c0.5-0.3,0.8-0.8,0.9-1.3c0.1-0.5,0-1.1-0.3-1.6
				c-0.3-0.5-0.8-0.8-1.3-0.9c-0.5-0.1-1.1,0-1.6,0.4L752,297.2z"/>
		</g>
		<g>
			<path fill="#FFFFFF" d="M724.3,233.5l-5.1-0.8l3.2-3.1l5.1,0.9l2.9,3l-20.9,20.4l-2.9-3L724.3,233.5z"/>
			<path fill="#FFFFFF" d="M730.4,242c0.7-0.7,1.5-1.2,2.2-1.5c0.8-0.3,1.6-0.4,2.4-0.4c0.8,0,1.6,0.2,2.3,0.6
				c0.7,0.3,1.4,0.8,2,1.4c0.6,0.6,1,1.3,1.3,2c0.3,0.7,0.5,1.5,0.5,2.3c0,0.8-0.1,1.6-0.5,2.4c-0.3,0.8-0.8,1.5-1.5,2.2l-12.3,12
				c-0.7,0.7-1.5,1.2-2.2,1.5c-0.8,0.3-1.6,0.4-2.4,0.4c-0.8,0-1.6-0.2-2.3-0.6c-0.7-0.3-1.4-0.8-2-1.4c-0.6-0.6-1-1.3-1.3-2
				c-0.3-0.7-0.5-1.5-0.5-2.3s0.1-1.6,0.5-2.4c0.3-0.8,0.8-1.5,1.5-2.2L730.4,242z M721,257c-0.4,0.4-0.7,0.9-0.7,1.5
				c0,0.6,0.2,1,0.6,1.5c0.4,0.4,0.9,0.6,1.5,0.6c0.6,0,1-0.2,1.5-0.6l12.3-12c0.4-0.4,0.7-0.9,0.7-1.5c0-0.6-0.2-1-0.6-1.5
				c-0.4-0.4-0.9-0.6-1.5-0.6c-0.6,0-1,0.2-1.5,0.6L721,257z"/>
		</g>
		<g>
			<path fill="#FFFFFF" d="M670.8,202.9c1,0.7,1.8,1.1,2.4,1.2c0.6,0,1.2-0.4,1.8-1.3l2.2-3c0.4-0.5,0.5-1,0.4-1.5
				c-0.1-0.5-0.4-1-0.9-1.4c-0.6-0.4-1.2-0.6-1.7-0.4c-0.5,0.2-0.9,0.5-1.2,0.8l-1.4,1.9l-3.4-2.5l1.4-1.9c0.5-0.7,1.1-1.2,1.8-1.7
				c0.7-0.4,1.5-0.7,2.3-0.8c0.8-0.1,1.6-0.1,2.4,0.1c0.8,0.2,1.6,0.5,2.3,1.1c0.9,0.7,1.6,1.4,1.9,2.2c0.3,0.8,0.5,1.5,0.6,2.1
				c0,0.4,0,0.8,0,1.2c0,0.4-0.1,0.8-0.3,1.2c-0.2,0.4-0.4,0.9-0.7,1.5c-0.3,0.6-0.8,1.2-1.3,2c-0.6,0.8-1.1,1.5-1.5,1.9
				c-0.4,0.5-0.8,0.8-1.2,1.1s-0.8,0.4-1.3,0.4c-0.5,0-1,0-1.7,0c0.3,0.7,0.5,1.3,0.5,1.8c0.1,0.5,0,1-0.1,1.5
				c-0.2,0.5-0.4,1-0.8,1.6c-0.4,0.6-0.9,1.3-1.5,2.1c-0.6,0.8-1.1,1.4-1.5,1.9c-0.4,0.5-0.8,0.9-1.1,1.2c-0.3,0.3-0.6,0.5-0.9,0.7
				c-0.3,0.2-0.6,0.3-1,0.4c-0.9,0.3-1.8,0.4-2.8,0.3c-1-0.1-2-0.5-3-1.3c-0.5-0.4-1-0.9-1.5-1.5c-0.5-0.6-0.8-1.3-1-2.1
				c-0.2-0.8-0.2-1.6-0.1-2.4c0.2-0.9,0.6-1.8,1.3-2.7l1.4-1.9l3.4,2.5l-1.3,1.8c-0.4,0.5-0.6,1.1-0.5,1.6c0,0.6,0.3,1,0.8,1.4
				c0.5,0.4,1,0.5,1.6,0.4c0.5-0.1,1-0.5,1.5-1l2.5-3.4c0.3-0.5,0.6-0.9,0.7-1.2c0.1-0.3,0.2-0.7,0.1-1c-0.1-0.3-0.3-0.6-0.6-0.9
				s-0.7-0.7-1.3-1.1L670.8,202.9z"/>
			<path fill="#FFFFFF" d="M683.1,212c1,0.7,1.8,1.1,2.4,1.2c0.6,0,1.2-0.4,1.8-1.3l2.2-3c0.4-0.5,0.5-1,0.4-1.5
				c-0.1-0.5-0.4-1-0.9-1.4c-0.6-0.4-1.2-0.6-1.7-0.4c-0.5,0.2-0.9,0.5-1.2,0.8l-1.4,1.9l-3.4-2.5l1.4-1.9c0.5-0.7,1.1-1.2,1.8-1.7
				c0.7-0.4,1.5-0.7,2.3-0.8c0.8-0.1,1.6-0.1,2.4,0.1c0.8,0.2,1.6,0.5,2.3,1.1c0.9,0.7,1.6,1.4,1.9,2.2c0.3,0.8,0.5,1.5,0.6,2.1
				c0,0.4,0,0.8,0,1.2c0,0.4-0.1,0.8-0.3,1.2c-0.2,0.4-0.4,0.9-0.7,1.5c-0.3,0.6-0.8,1.2-1.3,2c-0.6,0.8-1.1,1.5-1.5,1.9
				c-0.4,0.5-0.8,0.8-1.2,1.1c-0.4,0.2-0.8,0.4-1.3,0.4c-0.5,0-1,0-1.7,0c0.3,0.7,0.5,1.3,0.5,1.8c0.1,0.5,0,1-0.1,1.5
				c-0.2,0.5-0.4,1-0.8,1.6c-0.4,0.6-0.9,1.3-1.5,2.1c-0.6,0.8-1.1,1.4-1.5,1.9c-0.4,0.5-0.8,0.9-1.1,1.2c-0.3,0.3-0.6,0.5-0.9,0.7
				c-0.3,0.2-0.6,0.3-1,0.4c-0.9,0.3-1.8,0.4-2.8,0.3c-1-0.1-2-0.5-3-1.3c-0.5-0.4-1-0.9-1.5-1.5c-0.5-0.6-0.8-1.3-1-2.1
				c-0.2-0.8-0.2-1.6-0.1-2.4c0.2-0.9,0.6-1.8,1.3-2.7l1.4-1.9l3.4,2.5l-1.3,1.8c-0.4,0.5-0.6,1.1-0.5,1.6c0,0.6,0.3,1,0.8,1.4
				c0.5,0.4,1,0.5,1.6,0.4c0.5-0.1,1-0.5,1.5-1l2.5-3.4c0.3-0.5,0.6-0.9,0.7-1.2c0.1-0.3,0.2-0.7,0.1-1c-0.1-0.3-0.3-0.6-0.6-0.9
				c-0.3-0.3-0.7-0.7-1.3-1.1L683.1,212z"/>
		</g>
		<g>
			<path fill="#FFFFFF" d="M631.7,170.8l-4-2.3l-1.7,2.9l-3.2-1.8l3.7-6.3l10.8,6.2l-2.1,3.6l-18.7,18.1l-3.8-2.2L631.7,170.8z"/>
		</g>
		<g>
			<path fill="#FFFFFF" d="M552.9,165.7l11.1-11.8c0.6-0.6,0.9-1.1,1.1-1.6c0.2-0.5,0.4-1.1,0.6-1.9c0.1-0.3,0.2-0.7,0.3-1.1
				c0.1-0.4,0.1-0.7,0.1-1.1s-0.2-0.6-0.4-0.9c-0.2-0.3-0.6-0.5-1.1-0.6c-0.6-0.2-1.1-0.1-1.6,0.1c-0.5,0.2-0.8,0.7-0.9,1.4
				l-0.6,2.3l-4-1.1l0.6-2.2c0.2-0.8,0.6-1.6,1.1-2.2c0.5-0.7,1.1-1.2,1.8-1.6c0.7-0.4,1.5-0.7,2.3-0.8c0.8-0.1,1.7-0.1,2.5,0.2
				c1.1,0.3,1.9,0.7,2.6,1.3c0.6,0.6,1.1,1.3,1.4,2.1c0.3,0.8,0.5,1.6,0.5,2.6c0,0.9-0.1,1.8-0.4,2.8c-0.2,0.7-0.4,1.3-0.5,1.7
				c-0.2,0.5-0.3,0.9-0.5,1.3c-0.2,0.4-0.4,0.8-0.7,1.2c-0.3,0.4-0.7,0.8-1.2,1.3l-9.1,9.8l7.3,2l-1.1,4l-12-3.3L552.9,165.7z"/>
			<path fill="#FFFFFF" d="M575.9,158.5c1.2,0.3,2.1,0.4,2.6,0.3c0.5-0.2,1-0.8,1.2-1.8l1-3.6c0.2-0.6,0.1-1.1-0.1-1.6
				c-0.3-0.5-0.7-0.8-1.3-1c-0.7-0.2-1.3-0.1-1.7,0.3c-0.4,0.4-0.7,0.8-0.8,1.2l-0.6,2.3l-4-1.1l0.6-2.3c0.2-0.8,0.6-1.6,1.1-2.2
				c0.5-0.7,1.1-1.2,1.8-1.5c0.7-0.4,1.5-0.6,2.3-0.7c0.8-0.1,1.7-0.1,2.5,0.2c1.1,0.3,2,0.8,2.6,1.4c0.6,0.6,1,1.2,1.3,1.8
				c0.2,0.4,0.3,0.8,0.4,1.2c0.1,0.4,0.2,0.8,0.2,1.3c0,0.5-0.1,1-0.2,1.7c-0.1,0.6-0.3,1.4-0.5,2.3c-0.3,1-0.5,1.8-0.7,2.4
				c-0.2,0.6-0.5,1.1-0.7,1.4c-0.3,0.4-0.6,0.6-1,0.8s-1,0.4-1.6,0.6c0.5,0.6,0.9,1.1,1.1,1.5c0.2,0.4,0.4,0.9,0.4,1.4
				c0,0.5,0,1.1-0.2,1.7c-0.2,0.7-0.4,1.5-0.6,2.5c-0.3,0.9-0.5,1.7-0.7,2.3c-0.2,0.6-0.4,1.1-0.6,1.5s-0.4,0.7-0.6,1
				c-0.2,0.3-0.5,0.5-0.8,0.8c-0.7,0.6-1.5,1-2.4,1.3c-0.9,0.3-2,0.2-3.3-0.1c-0.6-0.2-1.3-0.5-1.9-0.9c-0.7-0.4-1.2-0.9-1.7-1.6
				c-0.5-0.6-0.8-1.4-0.9-2.3c-0.2-0.9-0.1-1.9,0.2-3l0.6-2.3l4,1.1l-0.6,2.1c-0.2,0.6-0.1,1.2,0.1,1.7c0.2,0.5,0.7,0.8,1.3,1
				c0.6,0.2,1.1,0.1,1.6-0.2c0.5-0.3,0.8-0.8,1-1.5l1.1-4c0.2-0.6,0.2-1,0.2-1.4c0-0.4-0.1-0.7-0.3-0.9c-0.2-0.3-0.5-0.5-0.9-0.7
				c-0.4-0.2-0.9-0.4-1.6-0.5L575.9,158.5z"/>
		</g>
		<g>
			<path fill="#FFFFFF" d="M508.5,145c1.2,0.2,2.1,0.2,2.6,0c0.5-0.2,0.9-0.9,1.1-1.9l0.7-3.7c0.1-0.6,0-1.1-0.3-1.6
				c-0.3-0.4-0.8-0.7-1.4-0.8c-0.7-0.1-1.3,0-1.7,0.4c-0.4,0.4-0.6,0.8-0.7,1.3l-0.4,2.3l-4.1-0.7l0.4-2.4c0.1-0.8,0.5-1.6,0.9-2.3
				c0.5-0.7,1-1.3,1.7-1.7c0.7-0.4,1.4-0.8,2.2-0.9c0.8-0.2,1.7-0.2,2.5-0.1c1.1,0.2,2,0.6,2.7,1.2c0.7,0.6,1.1,1.1,1.4,1.7
				c0.2,0.4,0.4,0.7,0.5,1.1c0.1,0.4,0.2,0.8,0.3,1.3c0,0.5,0,1,0,1.7c0,0.6-0.1,1.4-0.3,2.3c-0.2,1-0.3,1.8-0.5,2.4
				c-0.2,0.6-0.3,1.1-0.6,1.5c-0.2,0.4-0.6,0.7-1,0.9c-0.4,0.2-0.9,0.5-1.6,0.7c0.6,0.5,1,1,1.3,1.4c0.3,0.4,0.5,0.9,0.5,1.4
				c0.1,0.5,0.1,1.1,0,1.7c-0.1,0.7-0.2,1.5-0.4,2.5c-0.2,0.9-0.3,1.7-0.5,2.3c-0.2,0.6-0.3,1.1-0.5,1.5c-0.2,0.4-0.3,0.7-0.5,1
				c-0.2,0.3-0.4,0.6-0.7,0.8c-0.6,0.7-1.4,1.2-2.3,1.5c-0.9,0.4-2,0.4-3.2,0.2c-0.6-0.1-1.3-0.3-2-0.7c-0.7-0.3-1.3-0.8-1.8-1.4
				s-0.9-1.3-1.1-2.2s-0.3-1.8-0.1-3l0.4-2.3l4.1,0.7l-0.4,2.1c-0.1,0.6,0,1.2,0.3,1.7c0.3,0.5,0.7,0.8,1.4,0.9
				c0.6,0.1,1.1,0,1.6-0.4s0.7-0.9,0.8-1.6l0.7-4.1c0.1-0.6,0.1-1,0.1-1.4c0-0.4-0.2-0.7-0.4-0.9c-0.2-0.2-0.5-0.4-0.9-0.6
				c-0.4-0.1-0.9-0.3-1.6-0.4L508.5,145z"/>
		</g>
	</g>
	<g>
		<path d="M1164.8,198h-76.6v-60h76.6V198z M1089.2,197h74.6v-58h-74.6V197z"/>
		<ellipse fill="#363636" cx="1126.5" cy="168.1" rx="29.2" ry="23.5"/>
		<path fill="#FFFFFF" d="M1241.4,199h-78.6v-62h78.6V199z M1165.8,196h72.6v-56h-72.6V196z"/>
		<ellipse fill="#D73626" cx="1202.1" cy="168.1" rx="29.2" ry="23.5"/>
		<path fill="#FFFFFF" d="M1316.9,199h-78.6v-62h78.6V199z M1241.4,196h72.6v-56h-72.6V196z"/>
		<ellipse fill="#D73626" cx="1277.6" cy="168.1" rx="29.2" ry="23.5"/>
		<path fill="#FFFFFF" d="M1165.8,258h-78.6v-62h78.6V258z M1090.2,255h72.6v-56h-72.6V255z"/>
		<ellipse fill="#D73626" cx="1126.5" cy="227" rx="29.2" ry="23.5"/>
		<path fill="#FFFFFF" d="M1241.4,258h-78.6v-62h78.6V258z M1165.8,255h72.6v-56h-72.6V255z"/>
		<ellipse fill="#D73626" cx="1202.1" cy="227" rx="29.2" ry="23.5"/>
		<path fill="#FFFFFF" d="M1316.9,258h-78.6v-62h78.6V258z M1241.4,255h72.6v-56h-72.6V255z"/>
		<ellipse fill="#363636" cx="1277.6" cy="227" rx="29.2" ry="23.5"/>
		<path fill="#FFFFFF" d="M1165.8,316.9h-78.6v-62h78.6V316.9z M1090.2,313.9h72.6v-56h-72.6V313.9z"/>
		<ellipse fill="#D73626" cx="1126.5" cy="286" rx="29.2" ry="23.5"/>
		<path fill="#FFFFFF" d="M1241.4,316.9h-78.6v-62h78.6V316.9z M1165.8,313.9h72.6v-56h-72.6V313.9z"/>
		<ellipse fill="#363636" cx="1202.1" cy="286" rx="29.2" ry="23.5"/>
		<path fill="#FFFFFF" d="M1316.9,316.9h-78.6v-62h78.6V316.9z M1241.4,313.9h72.6v-56h-72.6V313.9z"/>
		<ellipse fill="#363636" cx="1277.6" cy="286" rx="29.2" ry="23.5"/>
		<path fill="#FFFFFF" d="M1165.8,375.9h-78.6v-62h78.6V375.9z M1090.2,372.9h72.6v-56h-72.6V372.9z"/>
		<ellipse fill="#D73626" cx="1126.5" cy="344.9" rx="29.2" ry="23.5"/>
		<path fill="#FFFFFF" d="M1241.4,375.9h-78.6v-62h78.6V375.9z M1165.8,372.9h72.6v-56h-72.6V372.9z"/>
		<ellipse fill="#363636" cx="1202.1" cy="344.9" rx="29.2" ry="23.5"/>
		<path fill="#FFFFFF" d="M1316.9,375.9h-78.6v-62h78.6V375.9z M1241.4,372.9h72.6v-56h-72.6V372.9z"/>
		<ellipse fill="#D73626" cx="1277.6" cy="344.9" rx="29.2" ry="23.5"/>
		<path fill="#FFFFFF" d="M1165.8,434.9h-78.6v-62h78.6V434.9z M1090.2,431.9h72.6v-56h-72.6V431.9z"/>
		<ellipse fill="#363636" cx="1126.5" cy="403.9" rx="29.2" ry="23.5"/>
		<path fill="#FFFFFF" d="M1241.4,434.9h-78.6v-62h78.6V434.9z M1165.8,431.9h72.6v-56h-72.6V431.9z"/>
		<ellipse fill="#D73626" cx="1202.1" cy="403.9" rx="29.2" ry="23.5"/>
		<path fill="#FFFFFF" d="M1316.9,434.9h-78.6v-62h78.6V434.9z M1241.4,431.9h72.6v-56h-72.6V431.9z"/>
		<ellipse fill="#363636" cx="1277.6" cy="403.9" rx="29.2" ry="23.5"/>
		<path fill="#FFFFFF" d="M1165.8,493.8h-78.6v-62h78.6V493.8z M1090.2,490.8h72.6v-56h-72.6V490.8z"/>
		<ellipse fill="#D73626" cx="1126.5" cy="462.8" rx="29.2" ry="23.5"/>
		<path fill="#FFFFFF" d="M1241.4,493.8h-78.6v-62h78.6V493.8z M1165.8,490.8h72.6v-56h-72.6V490.8z"/>
		<ellipse fill="#363636" cx="1202.1" cy="462.8" rx="29.2" ry="23.5"/>
		<path fill="#FFFFFF" d="M1316.9,493.8h-78.6v-62h78.6V493.8z M1241.4,490.8h72.6v-56h-72.6V490.8z"/>
		<ellipse fill="#363636" cx="1277.6" cy="462.8" rx="29.2" ry="23.5"/>
		<path fill="#FFFFFF" d="M1165.8,552.8h-78.6v-62h78.6V552.8z M1090.2,549.8h72.6v-56h-72.6V549.8z"/>
		<ellipse fill="#363636" cx="1126.5" cy="521.8" rx="29.2" ry="23.5"/>
		<path fill="#FFFFFF" d="M1241.4,552.8h-78.6v-62h78.6V552.8z M1165.8,549.8h72.6v-56h-72.6V549.8z"/>
		<ellipse fill="#363636" cx="1202.1" cy="521.8" rx="29.2" ry="23.5"/>
		<path fill="#FFFFFF" d="M1316.9,552.8h-78.6v-62h78.6V552.8z M1241.4,549.8h72.6v-56h-72.6V549.8z"/>
		<ellipse fill="#363636" cx="1277.6" cy="521.8" rx="29.2" ry="23.5"/>
		<path fill="#FFFFFF" d="M1165.8,611.7h-78.6v-62h78.6V611.7z M1090.2,608.7h72.6v-56h-72.6V608.7z"/>
		<ellipse fill="#D73626" cx="1126.5" cy="580.7" rx="29.2" ry="23.5"/>
		<path fill="#FFFFFF" d="M1241.4,611.7h-78.6v-62h78.6V611.7z M1165.8,608.7h72.6v-56h-72.6V608.7z"/>
		<ellipse fill="#363636" cx="1202.1" cy="580.7" rx="29.2" ry="23.5"/>
		<path fill="#FFFFFF" d="M1316.9,611.7h-78.6v-62h78.6V611.7z M1241.4,608.7h72.6v-56h-72.6V608.7z"/>
		<ellipse fill="#D73626" cx="1277.6" cy="580.7" rx="29.2" ry="23.5"/>
		<path fill="#FFFFFF" d="M1165.8,670.7h-78.6v-62h78.6V670.7z M1090.2,667.7h72.6v-56h-72.6V667.7z"/>
		<ellipse fill="#363636" cx="1126.5" cy="639.7" rx="29.2" ry="23.5"/>
		<path fill="#FFFFFF" d="M1241.4,670.7h-78.6v-62h78.6V670.7z M1165.8,667.7h72.6v-56h-72.6V667.7z"/>
		<ellipse fill="#D73626" cx="1202.1" cy="639.7" rx="29.2" ry="23.5"/>
		<path fill="#FFFFFF" d="M1316.9,670.7h-78.6v-62h78.6V670.7z M1241.4,667.7h72.6v-56h-72.6V667.7z"/>
		<ellipse fill="#D73626" cx="1277.6" cy="639.7" rx="29.2" ry="23.5"/>
		<path fill="#FFFFFF" d="M1165.8,729.6h-78.6v-62h78.6V729.6z M1090.2,726.6h72.6v-56h-72.6V726.6z"/>
		<ellipse fill="#363636" cx="1126.5" cy="698.7" rx="29.2" ry="23.5"/>
		<path fill="#FFFFFF" d="M1241.4,729.6h-78.6v-62h78.6V729.6z M1165.8,726.6h72.6v-56h-72.6V726.6z"/>
		<ellipse fill="#D73626" cx="1202.1" cy="698.7" rx="29.2" ry="23.5"/>
		<path fill="#FFFFFF" d="M1316.9,729.6h-78.6v-62h78.6V729.6z M1241.4,726.6h72.6v-56h-72.6V726.6z"/>
		<ellipse fill="#D73626" cx="1277.6" cy="698.7" rx="29.2" ry="23.5"/>
		<path fill="#FFFFFF" d="M1165.8,788.6h-78.6v-62h78.6V788.6z M1090.2,785.6h72.6v-56h-72.6V785.6z"/>
		<ellipse fill="#D73626" cx="1126.5" cy="757.6" rx="29.2" ry="23.5"/>
		<path fill="#FFFFFF" d="M1241.4,788.6h-78.6v-62h78.6V788.6z M1165.8,785.6h72.6v-56h-72.6V785.6z"/>
		<ellipse fill="#D73626" cx="1202.1" cy="757.6" rx="29.2" ry="23.5"/>
		<path fill="#FFFFFF" d="M1316.9,788.6h-78.6v-62h78.6V788.6z M1241.4,785.6h72.6v-56h-72.6V785.6z"/>
		<ellipse fill="#363636" cx="1277.6" cy="757.6" rx="29.2" ry="23.5"/>
		<path fill="#FFFFFF" d="M1165.8,847.5h-78.6v-62h78.6V847.5z M1090.2,844.5h72.6v-56h-72.6V844.5z"/>
		<ellipse fill="#FFFFFF" cx="1126.5" cy="816.6" rx="29.2" ry="23.5"/>
		<path fill="#FFFFFF" d="M1241.4,847.5h-78.6v-62h78.6V847.5z M1165.8,844.5h72.6v-56h-72.6V844.5z"/>
		<ellipse fill="#D73626" cx="1202.1" cy="816.6" rx="29.2" ry="23.5"/>
		<path fill="#FFFFFF" d="M1316.9,847.5h-78.6v-62h78.6V847.5z M1241.4,844.5h72.6v-56h-72.6V844.5z"/>
		<ellipse fill="#FFFFFF" cx="1277.6" cy="816.6" rx="29.2" ry="23.5"/>
		<path fill="#FFFFFF" d="M1165.8,906.5h-78.6v-62h78.6V906.5z M1090.2,903.5h72.6v-56h-72.6V903.5z"/>
		<path fill="#FFFFFF" d="M1241.4,906.5h-78.6v-62h78.6V906.5z M1165.8,903.5h72.6v-56h-72.6V903.5z"/>
		<path fill="#FFFFFF" d="M1316.9,906.5h-78.6v-62h78.6V906.5z M1241.4,903.5h72.6v-56h-72.6V903.5z"/>
		<path fill="#FFFFFF" d="M1316.9,140.1h-229.7V85h229.7V140.1z M1090.2,137.1h223.7V88h-223.7V137.1z"/>
		<g>
			<path fill="#FFFFFF" d="M1124.9,158l-4.2,3.1v-4.5l4.2-3.1h4.2v29.3h-4.2V158z"/>
		</g>
		<g>
			<path fill="#FFFFFF" d="M1196.3,179l7.6-14.3c0.4-0.7,0.6-1.3,0.7-1.9c0.1-0.5,0.1-1.2,0.1-2c0-0.4,0-0.7,0-1.1
				c0-0.4-0.1-0.7-0.2-1.1c-0.1-0.3-0.3-0.6-0.6-0.8c-0.3-0.2-0.7-0.3-1.2-0.3c-0.6,0-1.1,0.2-1.5,0.5c-0.4,0.4-0.6,0.9-0.6,1.6v2.4
				h-4.2v-2.3c0-0.9,0.2-1.7,0.5-2.5c0.3-0.8,0.8-1.4,1.3-2c0.6-0.6,1.2-1,2-1.4c0.8-0.3,1.6-0.5,2.5-0.5c1.1,0,2,0.2,2.8,0.6
				c0.8,0.4,1.4,0.9,1.9,1.6c0.5,0.7,0.9,1.5,1.1,2.3c0.2,0.9,0.4,1.8,0.4,2.8c0,0.7,0,1.3,0,1.8c0,0.5-0.1,0.9-0.2,1.4
				c-0.1,0.4-0.2,0.9-0.4,1.3c-0.2,0.4-0.5,1-0.8,1.6l-6.2,11.9h7.6v4.2h-12.5V179z"/>
		</g>
		<g>
			<path fill="#FFFFFF" d="M1276.8,166c1.3,0,2.1-0.2,2.6-0.5c0.5-0.3,0.7-1,0.7-2.1v-3.8c0-0.6-0.2-1.1-0.6-1.5
				c-0.4-0.4-0.9-0.6-1.5-0.6c-0.7,0-1.3,0.2-1.6,0.7c-0.3,0.5-0.5,0.9-0.5,1.4v2.4h-4.2v-2.4c0-0.9,0.2-1.7,0.5-2.4
				c0.3-0.8,0.8-1.4,1.4-2c0.6-0.5,1.2-1,2-1.3c0.8-0.3,1.6-0.5,2.5-0.5c1.2,0,2.1,0.2,2.9,0.7c0.8,0.5,1.3,0.9,1.7,1.4
				c0.3,0.3,0.5,0.7,0.7,1c0.2,0.3,0.4,0.7,0.5,1.2c0.1,0.5,0.2,1,0.3,1.6c0.1,0.6,0.1,1.4,0.1,2.4c0,1,0,1.8-0.1,2.5
				c0,0.6-0.2,1.2-0.3,1.6c-0.2,0.4-0.4,0.8-0.8,1.1c-0.3,0.3-0.8,0.6-1.4,1c0.7,0.4,1.2,0.8,1.5,1.2c0.3,0.4,0.6,0.8,0.8,1.3
				c0.2,0.5,0.3,1.1,0.3,1.7c0,0.7,0,1.5,0,2.6c0,1,0,1.8-0.1,2.4c0,0.6-0.1,1.2-0.2,1.6c-0.1,0.4-0.2,0.8-0.3,1.1
				c-0.1,0.3-0.3,0.6-0.5,0.9c-0.5,0.8-1.2,1.4-2,1.9c-0.8,0.5-1.9,0.8-3.2,0.8c-0.7,0-1.4-0.1-2.1-0.3c-0.7-0.2-1.4-0.6-2-1.1
				c-0.6-0.5-1.1-1.1-1.5-1.9c-0.4-0.8-0.6-1.8-0.6-2.9v-2.4h4.2v2.2c0,0.7,0.2,1.2,0.6,1.6c0.4,0.4,0.9,0.6,1.5,0.6
				c0.6,0,1.1-0.2,1.5-0.6c0.4-0.4,0.6-1,0.6-1.7v-4.2c0-0.6,0-1-0.1-1.4c-0.1-0.4-0.3-0.6-0.5-0.8s-0.6-0.3-1-0.4
				c-0.4-0.1-1-0.1-1.7-0.1V166z"/>
		</g>
		<g>
			<path fill="#FFFFFF" d="M1127.2,238.4h-8.4v-4l6.1-21h4.5l-6.3,21h4.2v-8.4h4.2v8.4h2v4h-2v4.4h-4.2V238.4z"/>
		</g>
		<g>
			<path fill="#FFFFFF" d="M1208.8,217.4h-8.3v7.9c0.4-0.4,0.9-0.7,1.5-1c0.6-0.3,1.3-0.4,2-0.4c1.4,0,2.6,0.4,3.5,1.3
				c0.9,0.9,1.3,2.2,1.3,3.9v7.6c0,1-0.2,1.9-0.5,2.6c-0.3,0.8-0.8,1.4-1.4,2c-0.6,0.5-1.2,1-2,1.3s-1.5,0.4-2.4,0.4
				c-0.8,0-1.6-0.1-2.4-0.4c-0.8-0.3-1.4-0.7-2-1.3c-0.6-0.5-1-1.2-1.4-2c-0.3-0.8-0.5-1.6-0.5-2.6v-1.2h4.2v1.1
				c0,0.7,0.2,1.3,0.6,1.7c0.4,0.4,0.9,0.6,1.5,0.6c0.6,0,1.1-0.2,1.5-0.6c0.3-0.4,0.5-0.9,0.5-1.6v-6.9c0-0.6-0.2-1.1-0.6-1.5
				c-0.4-0.4-0.8-0.6-1.4-0.6c-0.4,0-0.7,0.1-0.9,0.2c-0.2,0.1-0.5,0.3-0.6,0.4c-0.2,0.2-0.3,0.3-0.4,0.5c-0.1,0.2-0.2,0.3-0.2,0.5
				h-3.7v-15.8h12V217.4z"/>
		</g>
		<g>
			<path fill="#FFFFFF" d="M1278.1,225.7L1278.1,225.7c0.2,0,0.4-0.1,0.7-0.2c0.3-0.1,0.7-0.1,1.1-0.1c0.7,0,1.4,0.2,2.1,0.5
				c0.6,0.4,1.1,0.8,1.5,1.4c0.2,0.3,0.3,0.6,0.5,0.9c0.1,0.3,0.2,0.7,0.3,1.2c0.1,0.5,0.1,1.1,0.1,1.9c0,0.8,0,1.7,0,2.9
				c0,1,0,1.8,0,2.4c0,0.6-0.1,1.1-0.1,1.6c-0.1,0.4-0.2,0.8-0.3,1.1c-0.1,0.3-0.3,0.6-0.5,0.9c-0.5,0.9-1.3,1.6-2.2,2.1
				s-2,0.7-3.1,0.7c-1.2,0-2.2-0.3-3.1-0.8c-0.9-0.5-1.6-1.2-2.2-2.1c-0.2-0.3-0.4-0.6-0.5-0.9c-0.1-0.3-0.2-0.7-0.3-1.1
				c-0.1-0.4-0.1-0.9-0.1-1.6c0-0.6,0-1.4,0-2.4c0-0.9,0-1.7,0-2.2c0-0.6,0.1-1.1,0.1-1.5c0.1-0.4,0.1-0.8,0.2-1.2
				c0.1-0.3,0.2-0.7,0.4-1.1l5.5-14.8h4.7L1278.1,225.7z M1280.2,231.3c0-0.6-0.2-1.1-0.6-1.5c-0.4-0.4-0.9-0.6-1.4-0.6
				c-0.6,0-1,0.2-1.4,0.6c-0.4,0.4-0.6,0.9-0.6,1.5v5.4c0,0.6,0.2,1.1,0.6,1.5c0.4,0.4,0.9,0.6,1.4,0.6c0.5,0,1-0.2,1.4-0.6
				c0.4-0.4,0.6-0.9,0.6-1.5V231.3z"/>
		</g>
		<g>
			<path fill="#FFFFFF" d="M1128.2,275.3h-4.6v3.4h-3.7v-7.3h12.5v4.2l-7.1,25.1h-4.5L1128.2,275.3z"/>
		</g>
		<g>
			<path fill="#FFFFFF" d="M1196.3,279c0-0.8,0-1.5,0.1-2c0.1-0.6,0.1-1.1,0.3-1.5c0.1-0.4,0.3-0.8,0.5-1.1c0.2-0.3,0.4-0.7,0.7-1
				c0.5-0.7,1.2-1.3,2.1-1.7c0.8-0.4,1.7-0.6,2.7-0.6c1,0,1.9,0.2,2.7,0.6c0.8,0.4,1.5,1,2.1,1.7c0.3,0.4,0.5,0.7,0.7,1
				c0.2,0.3,0.4,0.7,0.5,1.1c0.1,0.4,0.2,0.9,0.3,1.5c0.1,0.6,0.1,1.2,0.1,2c0,0.9,0,1.6,0,2.2c0,0.6-0.1,1.1-0.2,1.6
				c-0.1,0.5-0.4,0.9-0.6,1.3c-0.3,0.4-0.7,0.8-1.2,1.2c0.5,0.4,0.9,0.8,1.2,1.2c0.3,0.4,0.5,0.8,0.6,1.4c0.1,0.5,0.2,1.2,0.2,1.9
				c0,0.8,0,1.7,0,2.8c0,0.9,0,1.7-0.1,2.2c0,0.6-0.1,1.1-0.2,1.5c-0.1,0.4-0.2,0.8-0.4,1.1c-0.2,0.3-0.3,0.6-0.6,0.9
				c-0.5,0.7-1.1,1.3-2,1.8c-0.9,0.5-1.9,0.8-3.1,0.8c-1.2,0-2.3-0.3-3.1-0.8c-0.9-0.5-1.5-1.1-2-1.8c-0.2-0.3-0.4-0.6-0.6-0.9
				c-0.2-0.3-0.3-0.7-0.4-1.1c-0.1-0.4-0.1-1-0.2-1.5c0-0.6-0.1-1.3-0.1-2.2c0-1.1,0-2,0-2.8c0-0.8,0.1-1.4,0.2-1.9
				c0.1-0.5,0.4-1,0.6-1.4s0.7-0.8,1.2-1.2c-0.5-0.4-0.9-0.8-1.2-1.2s-0.5-0.8-0.6-1.3c-0.1-0.5-0.2-1-0.2-1.6
				C1196.3,280.7,1196.3,279.9,1196.3,279z M1204.6,277.4c0-0.6-0.2-1.1-0.6-1.5c-0.4-0.4-0.9-0.6-1.4-0.6c-0.6,0-1,0.2-1.4,0.6
				c-0.4,0.4-0.6,0.9-0.6,1.5v4.3c0,0.6,0.2,1.1,0.6,1.5c0.4,0.4,0.9,0.6,1.4,0.6c0.5,0,1-0.2,1.4-0.6c0.4-0.4,0.6-0.9,0.6-1.5
				V277.4z M1204.6,288.9c0-0.6-0.2-1.1-0.6-1.5c-0.4-0.4-0.9-0.6-1.4-0.6c-0.6,0-1,0.2-1.4,0.6c-0.4,0.4-0.6,0.9-0.6,1.5v5.8
				c0,0.6,0.2,1.1,0.6,1.5c0.4,0.4,0.9,0.6,1.4,0.6c0.5,0,1-0.2,1.4-0.6c0.4-0.4,0.6-0.9,0.6-1.5V288.9z"/>
		</g>
		<g>
			<path fill="#FFFFFF" d="M1278.2,288.4L1278.2,288.4c-0.2,0-0.4,0.1-0.7,0.2c-0.3,0.1-0.7,0.1-1.1,0.1c-0.7,0-1.4-0.2-2.1-0.5
				c-0.6-0.4-1.1-0.8-1.5-1.4c-0.2-0.3-0.3-0.6-0.5-0.9c-0.1-0.3-0.2-0.7-0.3-1.2c-0.1-0.5-0.1-1.1-0.1-1.9c0-0.8,0-1.7,0-2.9
				c0-1,0-1.8,0-2.4c0-0.6,0.1-1.1,0.1-1.6c0.1-0.4,0.2-0.8,0.3-1.1c0.1-0.3,0.3-0.6,0.5-0.9c0.5-0.9,1.3-1.6,2.2-2.1s2-0.7,3.1-0.7
				c1.2,0,2.2,0.3,3.1,0.8c0.9,0.5,1.6,1.2,2.2,2.1c0.2,0.3,0.4,0.6,0.5,0.9c0.1,0.3,0.2,0.7,0.3,1.1c0.1,0.4,0.1,0.9,0.1,1.6
				c0,0.6,0,1.4,0,2.4c0,0.9,0,1.7,0,2.2c0,0.6-0.1,1.1-0.1,1.5c-0.1,0.4-0.2,0.8-0.2,1.2c-0.1,0.3-0.2,0.7-0.4,1.1l-5.5,14.8h-4.7
				L1278.2,288.4z M1276.1,282.9c0,0.6,0.2,1.1,0.6,1.5c0.4,0.4,0.9,0.6,1.4,0.6c0.5,0,1-0.2,1.4-0.6c0.4-0.4,0.6-0.9,0.6-1.5v-5.4
				c0-0.6-0.2-1.1-0.6-1.5c-0.4-0.4-0.9-0.6-1.4-0.6c-0.6,0-1,0.2-1.4,0.6c-0.4,0.4-0.6,0.9-0.6,1.5V282.9z"/>
		</g>
		<g>
			<path fill="#FFFFFF" d="M1192,335.4l-4.2,3.1V334l4.2-3.1h4.2v29.3h-4.2V335.4z"/>
			<path fill="#FFFFFF" d="M1207.3,335.4l-4.2,3.1V334l4.2-3.1h4.2v29.3h-4.2V335.4z"/>
		</g>
		<g>
			<path fill="#FFFFFF" d="M1268.1,335.4l-4.2,3.1V334l4.2-3.1h4.2v29.3h-4.2V335.4z"/>
			<path fill="#FFFFFF" d="M1278.4,356.3l7.6-14.3c0.4-0.7,0.6-1.3,0.7-1.9c0.1-0.5,0.1-1.2,0.1-2c0-0.4,0-0.7,0-1.1
				c0-0.4-0.1-0.7-0.2-1.1c-0.1-0.3-0.3-0.6-0.6-0.8c-0.3-0.2-0.7-0.3-1.2-0.3c-0.6,0-1.1,0.2-1.5,0.5c-0.4,0.4-0.6,0.9-0.6,1.6v2.4
				h-4.2V337c0-0.9,0.2-1.7,0.5-2.5c0.3-0.8,0.8-1.4,1.3-2c0.6-0.6,1.2-1,2-1.4c0.8-0.3,1.6-0.5,2.5-0.5c1.1,0,2,0.2,2.8,0.6
				c0.8,0.4,1.4,0.9,1.9,1.6c0.5,0.7,0.9,1.5,1.1,2.3c0.2,0.9,0.4,1.8,0.4,2.8c0,0.7,0,1.3,0,1.8c0,0.5-0.1,0.9-0.2,1.4
				c-0.1,0.4-0.2,0.9-0.4,1.3c-0.2,0.4-0.5,1-0.8,1.6l-6.2,11.9h7.6v4.2h-12.5V356.3z"/>
		</g>
		<g>
			<path fill="#FFFFFF" d="M1116.6,335.4l-4.2,3.1V334l4.2-3.1h4.2v29.3h-4.2V335.4z"/>
			<path fill="#FFFFFF" d="M1126.9,337c0-1,0.2-1.9,0.5-2.6c0.3-0.8,0.8-1.4,1.4-2c0.6-0.5,1.2-1,2-1.3c0.8-0.3,1.5-0.4,2.4-0.4
				c0.8,0,1.6,0.1,2.4,0.4c0.8,0.3,1.4,0.7,2,1.3c0.6,0.5,1,1.2,1.4,2c0.3,0.8,0.5,1.6,0.5,2.6v17.2c0,1-0.2,1.9-0.5,2.6
				c-0.3,0.8-0.8,1.4-1.4,2c-0.6,0.5-1.2,1-2,1.3c-0.8,0.3-1.5,0.4-2.4,0.4c-0.8,0-1.6-0.1-2.4-0.4c-0.8-0.3-1.4-0.7-2-1.3
				c-0.6-0.5-1-1.2-1.4-2c-0.3-0.8-0.5-1.6-0.5-2.6V337z M1131.1,354.2c0,0.6,0.2,1.1,0.6,1.5c0.4,0.4,0.9,0.6,1.5,0.6
				c0.6,0,1.1-0.2,1.5-0.6c0.4-0.4,0.6-0.9,0.6-1.5V337c0-0.6-0.2-1.1-0.6-1.5c-0.4-0.4-0.9-0.6-1.5-0.6c-0.6,0-1.1,0.2-1.5,0.6
				c-0.4,0.4-0.6,0.9-0.6,1.5V354.2z"/>
		</g>
		<g>
			<path fill="#FFFFFF" d="M1192,393.7l-4.2,3.1v-4.5l4.2-3.1h4.2v29.3h-4.2V393.7z"/>
			<path fill="#FFFFFF" d="M1209.7,414.3h-8.4v-4l6.1-21h4.5l-6.3,21h4.2v-8.4h4.2v8.4h2v4h-2v4.4h-4.2V414.3z"/>
		</g>
		<g>
			<path fill="#FFFFFF" d="M1268.1,393.7l-4.2,3.1v-4.5l4.2-3.1h4.2v29.3h-4.2V393.7z"/>
			<path fill="#FFFFFF" d="M1291,393.2h-8.3v7.9c0.4-0.4,0.9-0.7,1.5-1c0.6-0.3,1.3-0.4,2-0.4c1.4,0,2.6,0.4,3.5,1.3
				c0.9,0.9,1.3,2.2,1.3,3.9v7.6c0,1-0.2,1.9-0.5,2.6c-0.3,0.8-0.8,1.4-1.4,2c-0.6,0.5-1.2,1-2,1.3c-0.8,0.3-1.5,0.4-2.4,0.4
				c-0.8,0-1.6-0.1-2.4-0.4c-0.8-0.3-1.4-0.7-2-1.3c-0.6-0.5-1-1.2-1.4-2c-0.3-0.8-0.5-1.6-0.5-2.6v-1.2h4.2v1.1
				c0,0.7,0.2,1.3,0.6,1.7c0.4,0.4,0.9,0.6,1.5,0.6c0.6,0,1.1-0.2,1.5-0.6c0.3-0.4,0.5-0.9,0.5-1.6v-6.9c0-0.6-0.2-1.1-0.6-1.5
				c-0.4-0.4-0.8-0.6-1.4-0.6c-0.4,0-0.7,0.1-0.9,0.2c-0.2,0.1-0.5,0.3-0.6,0.4c-0.2,0.2-0.3,0.3-0.4,0.5c-0.1,0.2-0.2,0.3-0.2,0.5
				h-3.7v-15.8h12V393.2z"/>
		</g>
		<g>
			<path fill="#FFFFFF" d="M1116.6,393.7l-4.2,3.1v-4.5l4.2-3.1h4.2v29.3h-4.2V393.7z"/>
			<path fill="#FFFFFF" d="M1131.9,401.7c1.3,0,2.1-0.2,2.6-0.5c0.5-0.3,0.7-1,0.7-2.1v-3.8c0-0.6-0.2-1.1-0.6-1.5
				c-0.4-0.4-0.9-0.6-1.5-0.6c-0.7,0-1.3,0.2-1.6,0.7c-0.3,0.5-0.5,0.9-0.5,1.4v2.4h-4.2v-2.4c0-0.9,0.2-1.7,0.5-2.4
				c0.3-0.8,0.8-1.4,1.4-2c0.6-0.5,1.2-1,2-1.3c0.8-0.3,1.6-0.5,2.5-0.5c1.2,0,2.1,0.2,2.9,0.7c0.8,0.5,1.3,0.9,1.7,1.4
				c0.3,0.3,0.5,0.7,0.7,1c0.2,0.3,0.4,0.7,0.5,1.2s0.2,1,0.3,1.6c0.1,0.6,0.1,1.4,0.1,2.4c0,1,0,1.8-0.1,2.5c0,0.6-0.2,1.2-0.3,1.6
				c-0.2,0.4-0.4,0.8-0.8,1.1c-0.3,0.3-0.8,0.6-1.4,1c0.7,0.4,1.2,0.8,1.5,1.2c0.3,0.4,0.6,0.8,0.8,1.3c0.2,0.5,0.3,1.1,0.3,1.7
				c0,0.7,0,1.5,0,2.6c0,1,0,1.8-0.1,2.4c0,0.6-0.1,1.2-0.2,1.6c-0.1,0.4-0.2,0.8-0.3,1.1c-0.1,0.3-0.3,0.6-0.5,0.9
				c-0.5,0.8-1.2,1.4-2,1.9c-0.8,0.5-1.9,0.8-3.2,0.8c-0.7,0-1.4-0.1-2.1-0.3c-0.7-0.2-1.4-0.6-2-1.1c-0.6-0.5-1.1-1.1-1.5-1.9
				c-0.4-0.8-0.6-1.8-0.6-2.9v-2.4h4.2v2.2c0,0.7,0.2,1.2,0.6,1.6c0.4,0.4,0.9,0.6,1.5,0.6c0.6,0,1.1-0.2,1.5-0.6
				c0.4-0.4,0.6-1,0.6-1.7v-4.2c0-0.6,0-1-0.1-1.4c-0.1-0.4-0.3-0.6-0.5-0.8c-0.2-0.2-0.6-0.3-1-0.4c-0.4-0.1-1-0.1-1.7-0.1V401.7z"
				/>
		</g>
		<g>
			<path fill="#FFFFFF" d="M1192,451.7l-4.2,3.1v-4.5l4.2-3.1h4.2v29.3h-4.2V451.7z"/>
			<path fill="#FFFFFF" d="M1210.6,451.2h-4.6v3.4h-3.7v-7.3h12.5v4.2l-7.1,25.1h-4.5L1210.6,451.2z"/>
		</g>
		<g>
			<path fill="#FFFFFF" d="M1268.1,451.7l-4.2,3.1v-4.5l4.2-3.1h4.2v29.3h-4.2V451.7z"/>
			<path fill="#FFFFFF" d="M1278.4,454.9c0-0.8,0-1.5,0.1-2c0.1-0.6,0.1-1.1,0.3-1.5c0.1-0.4,0.3-0.8,0.5-1.1c0.2-0.3,0.4-0.7,0.7-1
				c0.5-0.7,1.2-1.3,2.1-1.7c0.8-0.4,1.7-0.6,2.7-0.6c1,0,1.9,0.2,2.7,0.6c0.8,0.4,1.5,1,2.1,1.7c0.3,0.4,0.5,0.7,0.7,1
				c0.2,0.3,0.4,0.7,0.5,1.1c0.1,0.4,0.2,0.9,0.3,1.5c0.1,0.6,0.1,1.2,0.1,2c0,0.9,0,1.6,0,2.2c0,0.6-0.1,1.1-0.2,1.6
				c-0.1,0.5-0.4,0.9-0.6,1.3s-0.7,0.8-1.2,1.2c0.5,0.4,0.9,0.8,1.2,1.2s0.5,0.8,0.6,1.4c0.1,0.5,0.2,1.2,0.2,1.9c0,0.8,0,1.7,0,2.8
				c0,0.9,0,1.7-0.1,2.2c0,0.6-0.1,1.1-0.2,1.5c-0.1,0.4-0.2,0.8-0.4,1.1c-0.2,0.3-0.3,0.6-0.6,0.9c-0.5,0.7-1.1,1.3-2,1.8
				c-0.9,0.5-1.9,0.8-3.1,0.8c-1.2,0-2.3-0.3-3.1-0.8c-0.9-0.5-1.5-1.1-2-1.8c-0.2-0.3-0.4-0.6-0.6-0.9s-0.3-0.7-0.4-1.1
				c-0.1-0.4-0.1-1-0.2-1.5c0-0.6-0.1-1.3-0.1-2.2c0-1.1,0-2,0-2.8c0-0.8,0.1-1.4,0.2-1.9c0.1-0.5,0.4-1,0.6-1.4s0.7-0.8,1.2-1.2
				c-0.5-0.4-0.9-0.8-1.2-1.2s-0.5-0.8-0.6-1.3c-0.1-0.5-0.2-1-0.2-1.6C1278.5,456.5,1278.4,455.8,1278.4,454.9z M1286.8,453.3
				c0-0.6-0.2-1.1-0.6-1.5c-0.4-0.4-0.9-0.6-1.4-0.6c-0.6,0-1,0.2-1.4,0.6c-0.4,0.4-0.6,0.9-0.6,1.5v4.3c0,0.6,0.2,1.1,0.6,1.5
				c0.4,0.4,0.9,0.6,1.4,0.6c0.5,0,1-0.2,1.4-0.6c0.4-0.4,0.6-0.9,0.6-1.5V453.3z M1286.8,464.8c0-0.6-0.2-1.1-0.6-1.5
				c-0.4-0.4-0.9-0.6-1.4-0.6c-0.6,0-1,0.2-1.4,0.6c-0.4,0.4-0.6,0.9-0.6,1.5v5.8c0,0.6,0.2,1.1,0.6,1.5c0.4,0.4,0.9,0.6,1.4,0.6
				c0.5,0,1-0.2,1.4-0.6c0.4-0.4,0.6-0.9,0.6-1.5V464.8z"/>
		</g>
		<g>
			<path fill="#FFFFFF" d="M1116.6,451.7l-4.2,3.1v-4.5l4.2-3.1h4.2v29.3h-4.2V451.7z"/>
			<path fill="#FFFFFF" d="M1133.1,459.6L1133.1,459.6c0.2,0,0.4-0.1,0.7-0.2c0.3-0.1,0.7-0.1,1.1-0.1c0.7,0,1.4,0.2,2.1,0.5
				c0.6,0.4,1.1,0.8,1.5,1.4c0.2,0.3,0.3,0.6,0.5,0.9c0.1,0.3,0.2,0.7,0.3,1.2c0.1,0.5,0.1,1.1,0.1,1.9c0,0.8,0,1.7,0,2.9
				c0,1,0,1.8,0,2.4c0,0.6-0.1,1.1-0.1,1.6c-0.1,0.4-0.2,0.8-0.3,1.1c-0.1,0.3-0.3,0.6-0.5,0.9c-0.5,0.9-1.3,1.6-2.2,2.1
				c-0.9,0.5-2,0.7-3.1,0.7c-1.2,0-2.2-0.3-3.1-0.8c-0.9-0.5-1.6-1.2-2.2-2.1c-0.2-0.3-0.4-0.6-0.5-0.9c-0.1-0.3-0.2-0.7-0.3-1.1
				c-0.1-0.4-0.1-0.9-0.1-1.6c0-0.6,0-1.4,0-2.4c0-0.9,0-1.7,0-2.2c0-0.6,0.1-1.1,0.1-1.5c0.1-0.4,0.1-0.8,0.2-1.2
				c0.1-0.3,0.2-0.7,0.4-1.1l5.5-14.8h4.7L1133.1,459.6z M1135.2,465.1c0-0.6-0.2-1.1-0.6-1.5c-0.4-0.4-0.9-0.6-1.4-0.6
				c-0.6,0-1,0.2-1.4,0.6c-0.4,0.4-0.6,0.9-0.6,1.5v5.4c0,0.6,0.2,1.1,0.6,1.5c0.4,0.4,0.9,0.6,1.4,0.6c0.5,0,1-0.2,1.4-0.6
				c0.4-0.4,0.6-0.9,0.6-1.5V465.1z"/>
		</g>
		<g>
			<path fill="#FFFFFF" d="M1187,532.7l7.6-14.3c0.4-0.7,0.6-1.3,0.7-1.9c0.1-0.5,0.1-1.2,0.1-2c0-0.4,0-0.7,0-1.1
				c0-0.4-0.1-0.7-0.2-1.1c-0.1-0.3-0.3-0.6-0.6-0.8c-0.3-0.2-0.7-0.3-1.2-0.3c-0.6,0-1.1,0.2-1.5,0.5c-0.4,0.4-0.6,0.9-0.6,1.6v2.4
				h-4.2v-2.3c0-0.9,0.2-1.7,0.5-2.5c0.3-0.8,0.8-1.4,1.3-2c0.6-0.6,1.2-1,2-1.4c0.8-0.3,1.6-0.5,2.5-0.5c1.1,0,2,0.2,2.8,0.6
				c0.8,0.4,1.4,0.9,1.9,1.6c0.5,0.7,0.9,1.5,1.1,2.3c0.2,0.9,0.4,1.8,0.4,2.8c0,0.7,0,1.3,0,1.8c0,0.5-0.1,0.9-0.2,1.4
				c-0.1,0.4-0.2,0.9-0.4,1.3s-0.5,1-0.8,1.6l-6.2,11.9h7.6v4.2H1187V532.7z"/>
			<path fill="#FFFFFF" d="M1202.3,513.4c0-1,0.2-1.9,0.5-2.6c0.3-0.8,0.8-1.4,1.4-2c0.6-0.5,1.2-1,2-1.3c0.8-0.3,1.5-0.4,2.4-0.4
				c0.8,0,1.6,0.1,2.4,0.4c0.8,0.3,1.4,0.7,2,1.3c0.6,0.6,1,1.2,1.4,2c0.3,0.8,0.5,1.6,0.5,2.6v17.2c0,1-0.2,1.9-0.5,2.6
				c-0.3,0.8-0.8,1.4-1.4,2c-0.6,0.5-1.2,1-2,1.3c-0.8,0.3-1.5,0.4-2.4,0.4c-0.8,0-1.6-0.1-2.4-0.4c-0.8-0.3-1.4-0.7-2-1.3
				s-1-1.2-1.4-2c-0.3-0.8-0.5-1.6-0.5-2.6V513.4z M1206.5,530.6c0,0.6,0.2,1.1,0.6,1.5c0.4,0.4,0.9,0.6,1.5,0.6
				c0.6,0,1.1-0.2,1.5-0.6c0.4-0.4,0.6-0.9,0.6-1.5v-17.2c0-0.6-0.2-1.1-0.6-1.5c-0.4-0.4-0.9-0.6-1.5-0.6c-0.6,0-1.1,0.2-1.5,0.6
				c-0.4,0.4-0.6,0.9-0.6,1.5V530.6z"/>
		</g>
		<g>
			<path fill="#FFFFFF" d="M1263.1,532.7l7.6-14.3c0.4-0.7,0.6-1.3,0.7-1.9c0.1-0.5,0.1-1.2,0.1-2c0-0.4,0-0.7,0-1.1
				c0-0.4-0.1-0.7-0.2-1.1c-0.1-0.3-0.3-0.6-0.6-0.8c-0.3-0.2-0.7-0.3-1.2-0.3c-0.6,0-1.1,0.2-1.5,0.5c-0.4,0.4-0.6,0.9-0.6,1.6v2.4
				h-4.2v-2.3c0-0.9,0.2-1.7,0.5-2.5c0.3-0.8,0.8-1.4,1.3-2c0.6-0.6,1.2-1,2-1.4c0.8-0.3,1.6-0.5,2.5-0.5c1.1,0,2,0.2,2.8,0.6
				c0.8,0.4,1.4,0.9,1.9,1.6c0.5,0.7,0.9,1.5,1.1,2.3c0.2,0.9,0.4,1.8,0.4,2.8c0,0.7,0,1.3,0,1.8c0,0.5-0.1,0.9-0.2,1.4
				c-0.1,0.4-0.2,0.9-0.4,1.3s-0.5,1-0.8,1.6l-6.2,11.9h7.6v4.2h-12.5V532.7z"/>
			<path fill="#FFFFFF" d="M1283.4,511.8l-4.2,3.1v-4.5l4.2-3.1h4.2v29.3h-4.2V511.8z"/>
		</g>
		<g>
			<path fill="#FFFFFF" d="M1116.6,511.8l-4.2,3.1v-4.5l4.2-3.1h4.2v29.3h-4.2V511.8z"/>
			<path fill="#FFFFFF" d="M1133.2,524.4L1133.2,524.4c-0.2,0-0.4,0.1-0.7,0.2c-0.3,0.1-0.7,0.1-1.1,0.1c-0.7,0-1.4-0.2-2.1-0.5
				c-0.6-0.4-1.1-0.8-1.5-1.4c-0.2-0.3-0.3-0.6-0.5-0.9c-0.1-0.3-0.2-0.7-0.3-1.2c-0.1-0.5-0.1-1.1-0.1-1.9c0-0.8,0-1.7,0-2.9
				c0-1,0-1.8,0-2.4c0-0.6,0.1-1.1,0.1-1.6c0.1-0.4,0.2-0.8,0.3-1.1c0.1-0.3,0.3-0.6,0.5-0.9c0.5-0.9,1.3-1.6,2.2-2.1
				c0.9-0.5,2-0.7,3.1-0.7c1.2,0,2.2,0.3,3.1,0.8c0.9,0.5,1.6,1.2,2.2,2.1c0.2,0.3,0.4,0.6,0.5,0.9c0.1,0.3,0.2,0.7,0.3,1.1
				c0.1,0.4,0.1,0.9,0.1,1.6c0,0.6,0,1.4,0,2.4c0,0.9,0,1.7,0,2.2c0,0.6-0.1,1.1-0.1,1.5c-0.1,0.4-0.2,0.8-0.2,1.2
				c-0.1,0.3-0.2,0.7-0.4,1.1l-5.5,14.8h-4.7L1133.2,524.4z M1131.1,518.8c0,0.6,0.2,1.1,0.6,1.5c0.4,0.4,0.9,0.6,1.4,0.6
				c0.5,0,1-0.2,1.4-0.6c0.4-0.4,0.6-0.9,0.6-1.5v-5.4c0-0.6-0.2-1.1-0.6-1.5c-0.4-0.4-0.9-0.6-1.4-0.6c-0.6,0-1,0.2-1.4,0.6
				c-0.4,0.4-0.6,0.9-0.6,1.5V518.8z"/>
		</g>
		<g>
			<path fill="#FFFFFF" d="M1187,591.1l7.6-14.3c0.4-0.7,0.6-1.3,0.7-1.9c0.1-0.5,0.1-1.2,0.1-2c0-0.4,0-0.7,0-1.1
				c0-0.4-0.1-0.7-0.2-1.1c-0.1-0.3-0.3-0.6-0.6-0.8c-0.3-0.2-0.7-0.3-1.2-0.3c-0.6,0-1.1,0.2-1.5,0.5c-0.4,0.4-0.6,0.9-0.6,1.6v2.4
				h-4.2v-2.3c0-0.9,0.2-1.7,0.5-2.5c0.3-0.8,0.8-1.4,1.3-2c0.6-0.6,1.2-1,2-1.4c0.8-0.3,1.6-0.5,2.5-0.5c1.1,0,2,0.2,2.8,0.6
				c0.8,0.4,1.4,0.9,1.9,1.6c0.5,0.7,0.9,1.5,1.1,2.3c0.2,0.9,0.4,1.8,0.4,2.8c0,0.7,0,1.3,0,1.8c0,0.5-0.1,0.9-0.2,1.4
				c-0.1,0.4-0.2,0.9-0.4,1.3s-0.5,1-0.8,1.6l-6.2,11.9h7.6v4.2H1187V591.1z"/>
			<path fill="#FFFFFF" d="M1207.3,578.1c1.3,0,2.1-0.1,2.6-0.5c0.5-0.3,0.7-1,0.7-2.1v-3.8c0-0.6-0.2-1.1-0.6-1.5
				c-0.4-0.4-0.9-0.6-1.5-0.6c-0.7,0-1.3,0.2-1.6,0.7c-0.3,0.5-0.5,0.9-0.5,1.4v2.4h-4.2v-2.4c0-0.9,0.2-1.7,0.5-2.4
				c0.3-0.8,0.8-1.4,1.4-2c0.6-0.5,1.2-1,2-1.3c0.8-0.3,1.6-0.5,2.5-0.5c1.2,0,2.1,0.2,2.9,0.7c0.8,0.5,1.3,0.9,1.7,1.4
				c0.3,0.3,0.5,0.7,0.7,1c0.2,0.3,0.4,0.7,0.5,1.2c0.1,0.5,0.2,1,0.3,1.6c0.1,0.6,0.1,1.4,0.1,2.4c0,1,0,1.8-0.1,2.5
				c0,0.6-0.2,1.2-0.3,1.6s-0.4,0.8-0.8,1.1c-0.3,0.3-0.8,0.6-1.4,1c0.7,0.4,1.2,0.8,1.5,1.2c0.3,0.4,0.6,0.8,0.8,1.3
				c0.2,0.5,0.3,1.1,0.3,1.7c0,0.7,0,1.5,0,2.6c0,1,0,1.8-0.1,2.4c0,0.6-0.1,1.2-0.2,1.6c-0.1,0.4-0.2,0.8-0.3,1.1
				c-0.1,0.3-0.3,0.6-0.5,0.9c-0.5,0.8-1.2,1.4-2,1.9c-0.8,0.5-1.9,0.8-3.2,0.8c-0.7,0-1.4-0.1-2.1-0.3c-0.7-0.2-1.4-0.6-2-1.1
				c-0.6-0.5-1.1-1.1-1.5-1.9c-0.4-0.8-0.6-1.8-0.6-2.9v-2.4h4.2v2.2c0,0.7,0.2,1.2,0.6,1.6s0.9,0.6,1.5,0.6c0.6,0,1.1-0.2,1.5-0.6
				c0.4-0.4,0.6-1,0.6-1.7v-4.2c0-0.6,0-1-0.1-1.4c-0.1-0.4-0.3-0.6-0.5-0.8c-0.2-0.2-0.6-0.3-1-0.4c-0.4-0.1-1-0.1-1.7-0.1V578.1z"
				/>
		</g>
		<g>
			<path fill="#FFFFFF" d="M1263.1,591.1l7.6-14.3c0.4-0.7,0.6-1.3,0.7-1.9c0.1-0.5,0.1-1.2,0.1-2c0-0.4,0-0.7,0-1.1
				c0-0.4-0.1-0.7-0.2-1.1c-0.1-0.3-0.3-0.6-0.6-0.8c-0.3-0.2-0.7-0.3-1.2-0.3c-0.6,0-1.1,0.2-1.5,0.5c-0.4,0.4-0.6,0.9-0.6,1.6v2.4
				h-4.2v-2.3c0-0.9,0.2-1.7,0.5-2.5c0.3-0.8,0.8-1.4,1.3-2c0.6-0.6,1.2-1,2-1.4c0.8-0.3,1.6-0.5,2.5-0.5c1.1,0,2,0.2,2.8,0.6
				c0.8,0.4,1.4,0.9,1.9,1.6c0.5,0.7,0.9,1.5,1.1,2.3c0.2,0.9,0.4,1.8,0.4,2.8c0,0.7,0,1.3,0,1.8c0,0.5-0.1,0.9-0.2,1.4
				c-0.1,0.4-0.2,0.9-0.4,1.3s-0.5,1-0.8,1.6l-6.2,11.9h7.6v4.2h-12.5V591.1z"/>
			<path fill="#FFFFFF" d="M1285.8,590.7h-8.4v-4l6.1-21h4.5l-6.3,21h4.2v-8.4h4.2v8.4h2v4h-2v4.4h-4.2V590.7z"/>
		</g>
		<g>
			<path fill="#FFFFFF" d="M1111.6,591.1l7.6-14.3c0.4-0.7,0.6-1.3,0.7-1.9c0.1-0.5,0.1-1.2,0.1-2c0-0.4,0-0.7,0-1.1
				c0-0.4-0.1-0.7-0.2-1.1c-0.1-0.3-0.3-0.6-0.6-0.8c-0.3-0.2-0.7-0.3-1.2-0.3c-0.6,0-1.1,0.2-1.5,0.5c-0.4,0.4-0.6,0.9-0.6,1.6v2.4
				h-4.2v-2.3c0-0.9,0.2-1.7,0.5-2.5c0.3-0.8,0.8-1.4,1.3-2c0.6-0.6,1.2-1,2-1.4c0.8-0.3,1.6-0.5,2.5-0.5c1.1,0,2,0.2,2.8,0.6
				c0.8,0.4,1.4,0.9,1.9,1.6c0.5,0.7,0.9,1.5,1.1,2.3c0.2,0.9,0.4,1.8,0.4,2.8c0,0.7,0,1.3,0,1.8c0,0.5-0.1,0.9-0.2,1.4
				c-0.1,0.4-0.2,0.9-0.4,1.3c-0.2,0.4-0.5,1-0.8,1.6l-6.2,11.9h7.6v4.2h-12.5V591.1z"/>
			<path fill="#FFFFFF" d="M1126.9,591.1l7.6-14.3c0.4-0.7,0.6-1.3,0.7-1.9c0.1-0.5,0.1-1.2,0.1-2c0-0.4,0-0.7,0-1.1
				c0-0.4-0.1-0.7-0.2-1.1c-0.1-0.3-0.3-0.6-0.6-0.8c-0.3-0.2-0.7-0.3-1.2-0.3c-0.6,0-1.1,0.2-1.5,0.5c-0.4,0.4-0.6,0.9-0.6,1.6v2.4
				h-4.2v-2.3c0-0.9,0.2-1.7,0.5-2.5c0.3-0.8,0.8-1.4,1.3-2c0.6-0.6,1.2-1,2-1.4c0.8-0.3,1.6-0.5,2.5-0.5c1.1,0,2,0.2,2.8,0.6
				c0.8,0.4,1.4,0.9,1.9,1.6c0.5,0.7,0.9,1.5,1.1,2.3c0.2,0.9,0.4,1.8,0.4,2.8c0,0.7,0,1.3,0,1.8c0,0.5-0.1,0.9-0.2,1.4
				c-0.1,0.4-0.2,0.9-0.4,1.3c-0.2,0.4-0.5,1-0.8,1.6l-6.2,11.9h7.6v4.2h-12.5V591.1z"/>
		</g>
		<g>
			<path fill="#FFFFFF" d="M1187,650.1l7.6-14.3c0.4-0.7,0.6-1.3,0.7-1.9c0.1-0.5,0.1-1.2,0.1-2c0-0.4,0-0.7,0-1.1
				c0-0.4-0.1-0.7-0.2-1.1c-0.1-0.3-0.3-0.6-0.6-0.8c-0.3-0.2-0.7-0.3-1.2-0.3c-0.6,0-1.1,0.2-1.5,0.5c-0.4,0.4-0.6,0.9-0.6,1.6v2.4
				h-4.2v-2.3c0-0.9,0.2-1.7,0.5-2.5c0.3-0.8,0.8-1.4,1.3-2c0.6-0.6,1.2-1,2-1.4c0.8-0.3,1.6-0.5,2.5-0.5c1.1,0,2,0.2,2.8,0.6
				c0.8,0.4,1.4,0.9,1.9,1.6c0.5,0.7,0.9,1.5,1.1,2.3c0.2,0.9,0.4,1.8,0.4,2.8c0,0.7,0,1.3,0,1.8c0,0.5-0.1,0.9-0.2,1.4
				c-0.1,0.4-0.2,0.9-0.4,1.3c-0.2,0.4-0.5,1-0.8,1.6l-6.2,11.9h7.6v4.2H1187V650.1z"/>
			<path fill="#FFFFFF" d="M1208.5,637L1208.5,637c0.2,0,0.4-0.1,0.7-0.2c0.3-0.1,0.7-0.1,1.1-0.1c0.7,0,1.4,0.2,2.1,0.5
				c0.6,0.4,1.1,0.8,1.5,1.4c0.2,0.3,0.3,0.6,0.5,0.9c0.1,0.3,0.2,0.7,0.3,1.2c0.1,0.5,0.1,1.1,0.1,1.9c0,0.8,0,1.7,0,2.9
				c0,1,0,1.8,0,2.4c0,0.6-0.1,1.1-0.1,1.6c-0.1,0.4-0.2,0.8-0.3,1.1c-0.1,0.3-0.3,0.6-0.5,0.9c-0.5,0.9-1.3,1.6-2.2,2.1
				c-0.9,0.5-2,0.7-3.1,0.7c-1.2,0-2.2-0.3-3.1-0.8c-0.9-0.5-1.6-1.2-2.2-2.1c-0.2-0.3-0.4-0.6-0.5-0.9c-0.1-0.3-0.2-0.7-0.3-1.1
				c-0.1-0.4-0.1-0.9-0.1-1.6c0-0.6,0-1.4,0-2.4c0-0.9,0-1.7,0-2.2c0-0.6,0.1-1.1,0.1-1.5c0.1-0.4,0.1-0.8,0.2-1.2
				c0.1-0.3,0.2-0.7,0.4-1.1l5.5-14.8h4.7L1208.5,637z M1210.6,642.5c0-0.6-0.2-1.1-0.6-1.5c-0.4-0.4-0.9-0.6-1.4-0.6
				c-0.6,0-1,0.2-1.4,0.6c-0.4,0.4-0.6,0.9-0.6,1.5v5.4c0,0.6,0.2,1.1,0.6,1.5c0.4,0.4,0.9,0.6,1.4,0.6c0.5,0,1-0.2,1.4-0.6
				c0.4-0.4,0.6-0.9,0.6-1.5V642.5z"/>
		</g>
		<g>
			<path fill="#FFFFFF" d="M1263.1,650.1l7.6-14.3c0.4-0.7,0.6-1.3,0.7-1.9c0.1-0.5,0.1-1.2,0.1-2c0-0.4,0-0.7,0-1.1
				c0-0.4-0.1-0.7-0.2-1.1c-0.1-0.3-0.3-0.6-0.6-0.8c-0.3-0.2-0.7-0.3-1.2-0.3c-0.6,0-1.1,0.2-1.5,0.5c-0.4,0.4-0.6,0.9-0.6,1.6v2.4
				h-4.2v-2.3c0-0.9,0.2-1.7,0.5-2.5c0.3-0.8,0.8-1.4,1.3-2c0.6-0.6,1.2-1,2-1.4c0.8-0.3,1.6-0.5,2.5-0.5c1.1,0,2,0.2,2.8,0.6
				c0.8,0.4,1.4,0.9,1.9,1.6c0.5,0.7,0.9,1.5,1.1,2.3c0.2,0.9,0.4,1.8,0.4,2.8c0,0.7,0,1.3,0,1.8c0,0.5-0.1,0.9-0.2,1.4
				c-0.1,0.4-0.2,0.9-0.4,1.3c-0.2,0.4-0.5,1-0.8,1.6l-6.2,11.9h7.6v4.2h-12.5V650.1z"/>
			<path fill="#FFFFFF" d="M1286.8,628.6h-4.6v3.4h-3.7v-7.3h12.5v4.2l-7.1,25.1h-4.5L1286.8,628.6z"/>
		</g>
		<g>
			<path fill="#FFFFFF" d="M1111.6,650.1l7.6-14.3c0.4-0.7,0.6-1.3,0.7-1.9c0.1-0.5,0.1-1.2,0.1-2c0-0.4,0-0.7,0-1.1
				c0-0.4-0.1-0.7-0.2-1.1c-0.1-0.3-0.3-0.6-0.6-0.8c-0.3-0.2-0.7-0.3-1.2-0.3c-0.6,0-1.1,0.2-1.5,0.5c-0.4,0.4-0.6,0.9-0.6,1.6v2.4
				h-4.2v-2.3c0-0.9,0.2-1.7,0.5-2.5c0.3-0.8,0.8-1.4,1.3-2c0.6-0.6,1.2-1,2-1.4c0.8-0.3,1.6-0.5,2.5-0.5c1.1,0,2,0.2,2.8,0.6
				c0.8,0.4,1.4,0.9,1.9,1.6c0.5,0.7,0.9,1.5,1.1,2.3c0.2,0.9,0.4,1.8,0.4,2.8c0,0.7,0,1.3,0,1.8c0,0.5-0.1,0.9-0.2,1.4
				c-0.1,0.4-0.2,0.9-0.4,1.3c-0.2,0.4-0.5,1-0.8,1.6l-6.2,11.9h7.6v4.2h-12.5V650.1z"/>
			<path fill="#FFFFFF" d="M1139.4,628.6h-8.3v7.9c0.4-0.4,0.9-0.7,1.5-1c0.6-0.3,1.3-0.4,2-0.4c1.4,0,2.6,0.4,3.5,1.3
				c0.9,0.9,1.3,2.2,1.3,3.9v7.6c0,1-0.2,1.9-0.5,2.6c-0.3,0.8-0.8,1.4-1.4,2c-0.6,0.5-1.2,1-2,1.3c-0.8,0.3-1.5,0.4-2.4,0.4
				c-0.8,0-1.6-0.1-2.4-0.4c-0.8-0.3-1.4-0.7-2-1.3s-1-1.2-1.4-2c-0.3-0.8-0.5-1.6-0.5-2.6v-1.2h4.2v1.1c0,0.7,0.2,1.3,0.6,1.7
				c0.4,0.4,0.9,0.6,1.5,0.6c0.6,0,1.1-0.2,1.5-0.6c0.3-0.4,0.5-0.9,0.5-1.6V641c0-0.6-0.2-1.1-0.6-1.5c-0.4-0.4-0.8-0.6-1.4-0.6
				c-0.4,0-0.7,0.1-0.9,0.2c-0.2,0.1-0.5,0.3-0.6,0.4c-0.2,0.2-0.3,0.3-0.4,0.5c-0.1,0.2-0.2,0.3-0.2,0.5h-3.7v-15.8h12V628.6z"/>
		</g>
		<g>
			<path fill="#FFFFFF" d="M1187,708.4l7.6-14.3c0.4-0.7,0.6-1.3,0.7-1.9c0.1-0.5,0.1-1.2,0.1-2c0-0.4,0-0.7,0-1.1
				c0-0.4-0.1-0.7-0.2-1.1c-0.1-0.3-0.3-0.6-0.6-0.8c-0.3-0.2-0.7-0.3-1.2-0.3c-0.6,0-1.1,0.2-1.5,0.5c-0.4,0.4-0.6,0.9-0.6,1.6v2.4
				h-4.2v-2.3c0-0.9,0.2-1.7,0.5-2.5c0.3-0.8,0.8-1.4,1.3-2c0.6-0.6,1.2-1,2-1.4c0.8-0.3,1.6-0.5,2.5-0.5c1.1,0,2,0.2,2.8,0.6
				c0.8,0.4,1.4,0.9,1.9,1.6c0.5,0.7,0.9,1.5,1.1,2.3c0.2,0.9,0.4,1.8,0.4,2.8c0,0.7,0,1.3,0,1.8c0,0.5-0.1,0.9-0.2,1.4
				c-0.1,0.4-0.2,0.9-0.4,1.3s-0.5,1-0.8,1.6l-6.2,11.9h7.6v4.2H1187V708.4z"/>
			<path fill="#FFFFFF" d="M1208.6,700.1L1208.6,700.1c-0.2,0-0.4,0.1-0.7,0.2c-0.3,0.1-0.7,0.1-1.1,0.1c-0.7,0-1.4-0.2-2.1-0.5
				c-0.6-0.4-1.1-0.8-1.5-1.4c-0.2-0.3-0.3-0.6-0.5-0.9c-0.1-0.3-0.2-0.7-0.3-1.2c-0.1-0.5-0.1-1.1-0.1-1.9c0-0.8,0-1.7,0-2.9
				c0-1,0-1.8,0-2.4c0-0.6,0.1-1.1,0.1-1.6c0.1-0.4,0.2-0.8,0.3-1.1c0.1-0.3,0.3-0.6,0.5-0.9c0.5-0.9,1.3-1.6,2.2-2.1
				c0.9-0.5,2-0.7,3.1-0.7c1.2,0,2.2,0.3,3.1,0.8c0.9,0.5,1.6,1.2,2.2,2.1c0.2,0.3,0.4,0.6,0.5,0.9c0.1,0.3,0.2,0.7,0.3,1.1
				c0.1,0.4,0.1,0.9,0.1,1.6c0,0.6,0,1.4,0,2.4c0,0.9,0,1.7,0,2.2c0,0.6-0.1,1.1-0.1,1.5c-0.1,0.4-0.2,0.8-0.2,1.2
				c-0.1,0.3-0.2,0.7-0.4,1.1l-5.5,14.8h-4.7L1208.6,700.1z M1206.5,694.6c0,0.6,0.2,1.1,0.6,1.5c0.4,0.4,0.9,0.6,1.4,0.6
				c0.5,0,1-0.2,1.4-0.6c0.4-0.4,0.6-0.9,0.6-1.5v-5.4c0-0.6-0.2-1.1-0.6-1.5c-0.4-0.4-0.9-0.6-1.4-0.6c-0.6,0-1,0.2-1.4,0.6
				c-0.4,0.4-0.6,0.9-0.6,1.5V694.6z"/>
		</g>
		<g>
			<path fill="#FFFFFF" d="M1268.1,695.4c1.3,0,2.1-0.1,2.6-0.5c0.5-0.3,0.7-1,0.7-2.1v-3.8c0-0.6-0.2-1.1-0.6-1.5
				c-0.4-0.4-0.9-0.6-1.5-0.6c-0.7,0-1.3,0.2-1.6,0.7c-0.3,0.5-0.5,0.9-0.5,1.4v2.4h-4.2V689c0-0.9,0.2-1.7,0.5-2.4
				c0.3-0.8,0.8-1.4,1.4-2s1.2-1,2-1.3c0.8-0.3,1.6-0.5,2.5-0.5c1.2,0,2.1,0.2,2.9,0.7c0.8,0.5,1.3,0.9,1.7,1.4
				c0.3,0.3,0.5,0.7,0.7,1c0.2,0.3,0.4,0.7,0.5,1.2c0.1,0.5,0.2,1,0.3,1.6c0.1,0.6,0.1,1.4,0.1,2.4c0,1,0,1.8-0.1,2.5
				c0,0.6-0.2,1.2-0.3,1.6s-0.4,0.8-0.8,1.1c-0.3,0.3-0.8,0.6-1.4,1c0.7,0.4,1.2,0.8,1.5,1.2c0.3,0.4,0.6,0.8,0.8,1.3
				c0.2,0.5,0.3,1.1,0.3,1.7c0,0.7,0,1.5,0,2.6c0,1,0,1.8-0.1,2.4c0,0.6-0.1,1.2-0.2,1.6c-0.1,0.4-0.2,0.8-0.3,1.1
				c-0.1,0.3-0.3,0.6-0.5,0.9c-0.5,0.8-1.2,1.4-2,1.9c-0.8,0.5-1.9,0.8-3.2,0.8c-0.7,0-1.4-0.1-2.1-0.3s-1.4-0.6-2-1.1
				c-0.6-0.5-1.1-1.1-1.5-1.9c-0.4-0.8-0.6-1.8-0.6-2.9V704h4.2v2.2c0,0.7,0.2,1.2,0.6,1.6s0.9,0.6,1.5,0.6c0.6,0,1.1-0.2,1.5-0.6
				c0.4-0.4,0.6-1,0.6-1.7v-4.2c0-0.6,0-1-0.1-1.4c-0.1-0.4-0.3-0.6-0.5-0.8c-0.2-0.2-0.6-0.3-1-0.4c-0.4-0.1-1-0.1-1.7-0.1V695.4z"
				/>
			<path fill="#FFFFFF" d="M1278.4,689.1c0-1,0.2-1.9,0.5-2.6c0.3-0.8,0.8-1.4,1.4-2c0.6-0.5,1.2-1,2-1.3c0.8-0.3,1.5-0.4,2.4-0.4
				c0.8,0,1.6,0.1,2.4,0.4c0.8,0.3,1.4,0.7,2,1.3c0.6,0.6,1,1.2,1.4,2c0.3,0.8,0.5,1.6,0.5,2.6v17.2c0,1-0.2,1.9-0.5,2.6
				c-0.3,0.8-0.8,1.4-1.4,2c-0.6,0.5-1.2,1-2,1.3c-0.8,0.3-1.5,0.4-2.4,0.4c-0.8,0-1.6-0.1-2.4-0.4c-0.8-0.3-1.4-0.7-2-1.3
				c-0.6-0.5-1-1.2-1.4-2c-0.3-0.8-0.5-1.6-0.5-2.6V689.1z M1282.6,706.3c0,0.6,0.2,1.1,0.6,1.5c0.4,0.4,0.9,0.6,1.5,0.6
				c0.6,0,1.1-0.2,1.5-0.6c0.4-0.4,0.6-0.9,0.6-1.5v-17.2c0-0.6-0.2-1.1-0.6-1.5c-0.4-0.4-0.9-0.6-1.5-0.6c-0.6,0-1.1,0.2-1.5,0.6
				c-0.4,0.4-0.6,0.9-0.6,1.5V706.3z"/>
		</g>
		<g>
			<path fill="#FFFFFF" d="M1111.6,708.4l7.6-14.3c0.4-0.7,0.6-1.3,0.7-1.9c0.1-0.5,0.1-1.2,0.1-2c0-0.4,0-0.7,0-1.1
				c0-0.4-0.1-0.7-0.2-1.1c-0.1-0.3-0.3-0.6-0.6-0.8c-0.3-0.2-0.7-0.3-1.2-0.3c-0.6,0-1.1,0.2-1.5,0.5c-0.4,0.4-0.6,0.9-0.6,1.6v2.4
				h-4.2v-2.3c0-0.9,0.2-1.7,0.5-2.5c0.3-0.8,0.8-1.4,1.3-2c0.6-0.6,1.2-1,2-1.4c0.8-0.3,1.6-0.5,2.5-0.5c1.1,0,2,0.2,2.8,0.6
				c0.8,0.4,1.4,0.9,1.9,1.6c0.5,0.7,0.9,1.5,1.1,2.3c0.2,0.9,0.4,1.8,0.4,2.8c0,0.7,0,1.3,0,1.8c0,0.5-0.1,0.9-0.2,1.4
				c-0.1,0.4-0.2,0.9-0.4,1.3c-0.2,0.4-0.5,1-0.8,1.6l-6.2,11.9h7.6v4.2h-12.5V708.4z"/>
			<path fill="#FFFFFF" d="M1126.9,690.7c0-0.8,0-1.5,0.1-2c0.1-0.6,0.1-1.1,0.3-1.5c0.1-0.4,0.3-0.8,0.5-1.1c0.2-0.3,0.4-0.7,0.7-1
				c0.5-0.7,1.2-1.3,2.1-1.7c0.8-0.4,1.7-0.6,2.7-0.6c1,0,1.9,0.2,2.7,0.6c0.8,0.4,1.5,1,2.1,1.7c0.3,0.4,0.5,0.7,0.7,1
				c0.2,0.3,0.4,0.7,0.5,1.1c0.1,0.4,0.2,0.9,0.3,1.5c0.1,0.6,0.1,1.2,0.1,2c0,0.9,0,1.6,0,2.2c0,0.6-0.1,1.1-0.2,1.6
				c-0.1,0.5-0.4,0.9-0.6,1.3c-0.3,0.4-0.7,0.8-1.2,1.2c0.5,0.4,0.9,0.8,1.2,1.2s0.5,0.8,0.6,1.4c0.1,0.5,0.2,1.2,0.2,1.9
				c0,0.8,0,1.7,0,2.8c0,0.9,0,1.7-0.1,2.2c0,0.6-0.1,1.1-0.2,1.5c-0.1,0.4-0.2,0.8-0.4,1.1s-0.3,0.6-0.6,0.9
				c-0.5,0.7-1.1,1.3-2,1.8c-0.9,0.5-1.9,0.8-3.1,0.8c-1.2,0-2.3-0.3-3.1-0.8c-0.9-0.5-1.5-1.1-2-1.8c-0.2-0.3-0.4-0.6-0.6-0.9
				c-0.2-0.3-0.3-0.7-0.4-1.1c-0.1-0.4-0.1-1-0.2-1.5c0-0.6-0.1-1.3-0.1-2.2c0-1.1,0-2,0-2.8c0-0.8,0.1-1.4,0.2-1.9
				c0.1-0.5,0.4-1,0.6-1.4c0.3-0.4,0.7-0.8,1.2-1.2c-0.5-0.4-0.9-0.8-1.2-1.2c-0.3-0.4-0.5-0.8-0.6-1.3c-0.1-0.5-0.2-1-0.2-1.6
				C1126.9,692.4,1126.9,691.6,1126.9,690.7z M1135.2,689.1c0-0.6-0.2-1.1-0.6-1.5c-0.4-0.4-0.9-0.6-1.4-0.6c-0.6,0-1,0.2-1.4,0.6
				c-0.4,0.4-0.6,0.9-0.6,1.5v4.3c0,0.6,0.2,1.1,0.6,1.5c0.4,0.4,0.9,0.6,1.4,0.6c0.5,0,1-0.2,1.4-0.6c0.4-0.4,0.6-0.9,0.6-1.5
				V689.1z M1135.2,700.6c0-0.6-0.2-1.1-0.6-1.5c-0.4-0.4-0.9-0.6-1.4-0.6c-0.6,0-1,0.2-1.4,0.6c-0.4,0.4-0.6,0.9-0.6,1.5v5.8
				c0,0.6,0.2,1.1,0.6,1.5c0.4,0.4,0.9,0.6,1.4,0.6c0.5,0,1-0.2,1.4-0.6c0.4-0.4,0.6-0.9,0.6-1.5V700.6z"/>
		</g>
		<g>
			<path fill="#FFFFFF" d="M1192,756.1c1.3,0,2.1-0.1,2.6-0.5c0.5-0.3,0.7-1,0.7-2.1v-3.8c0-0.6-0.2-1.1-0.6-1.5
				c-0.4-0.4-0.9-0.6-1.5-0.6c-0.7,0-1.3,0.2-1.6,0.7c-0.3,0.5-0.5,0.9-0.5,1.4v2.4h-4.2v-2.4c0-0.9,0.2-1.7,0.5-2.4
				c0.3-0.8,0.8-1.4,1.4-2c0.6-0.5,1.2-1,2-1.3c0.8-0.3,1.6-0.5,2.5-0.5c1.2,0,2.1,0.2,2.9,0.7c0.8,0.5,1.3,0.9,1.7,1.4
				c0.3,0.3,0.5,0.7,0.7,1c0.2,0.3,0.4,0.7,0.5,1.2c0.1,0.5,0.2,1,0.3,1.6c0.1,0.6,0.1,1.4,0.1,2.4c0,1,0,1.8-0.1,2.5
				c0,0.6-0.2,1.2-0.3,1.6s-0.4,0.8-0.8,1.1c-0.3,0.3-0.8,0.6-1.4,1c0.7,0.4,1.2,0.8,1.5,1.2c0.3,0.4,0.6,0.8,0.8,1.3
				c0.2,0.5,0.3,1.1,0.3,1.7c0,0.7,0,1.5,0,2.6c0,1,0,1.8-0.1,2.4c0,0.6-0.1,1.2-0.2,1.6c-0.1,0.4-0.2,0.8-0.3,1.1
				c-0.1,0.3-0.3,0.6-0.5,0.9c-0.5,0.8-1.2,1.4-2,1.9c-0.8,0.5-1.9,0.8-3.2,0.8c-0.7,0-1.4-0.1-2.1-0.3c-0.7-0.2-1.4-0.6-2-1.1
				c-0.6-0.5-1.1-1.1-1.5-1.9c-0.4-0.8-0.6-1.8-0.6-2.9v-2.4h4.2v2.2c0,0.7,0.2,1.2,0.6,1.6s0.9,0.6,1.5,0.6c0.6,0,1.1-0.2,1.5-0.6
				c0.4-0.4,0.6-1,0.6-1.7v-4.2c0-0.6,0-1-0.1-1.4c-0.1-0.4-0.3-0.6-0.5-0.8c-0.2-0.2-0.6-0.3-1-0.4c-0.4-0.1-1-0.1-1.7-0.1V756.1z"
				/>
			<path fill="#FFFFFF" d="M1202.3,769.1l7.6-14.3c0.4-0.7,0.6-1.3,0.7-1.9c0.1-0.5,0.1-1.2,0.1-2c0-0.4,0-0.7,0-1.1
				c0-0.4-0.1-0.7-0.2-1.1c-0.1-0.3-0.3-0.6-0.6-0.8c-0.3-0.2-0.7-0.3-1.2-0.3c-0.6,0-1.1,0.2-1.5,0.5c-0.4,0.4-0.6,0.9-0.6,1.6v2.4
				h-4.2v-2.3c0-0.9,0.2-1.7,0.5-2.5c0.3-0.8,0.8-1.4,1.3-2c0.6-0.6,1.2-1,2-1.4c0.8-0.3,1.6-0.5,2.5-0.5c1.1,0,2,0.2,2.8,0.6
				c0.8,0.4,1.4,0.9,1.9,1.6c0.5,0.7,0.9,1.5,1.1,2.3c0.2,0.9,0.4,1.8,0.4,2.8c0,0.7,0,1.3,0,1.8c0,0.5-0.1,0.9-0.2,1.4
				c-0.1,0.4-0.2,0.9-0.4,1.3c-0.2,0.4-0.5,1-0.8,1.6l-6.2,11.9h7.6v4.2h-12.5V769.1z"/>
		</g>
		<g>
			<path fill="#FFFFFF" d="M1268.1,756.1c1.3,0,2.1-0.1,2.6-0.5c0.5-0.3,0.7-1,0.7-2.1v-3.8c0-0.6-0.2-1.1-0.6-1.5
				c-0.4-0.4-0.9-0.6-1.5-0.6c-0.7,0-1.3,0.2-1.6,0.7c-0.3,0.5-0.5,0.9-0.5,1.4v2.4h-4.2v-2.4c0-0.9,0.2-1.7,0.5-2.4
				c0.3-0.8,0.8-1.4,1.4-2s1.2-1,2-1.3c0.8-0.3,1.6-0.5,2.5-0.5c1.2,0,2.1,0.2,2.9,0.7c0.8,0.5,1.3,0.9,1.7,1.4
				c0.3,0.3,0.5,0.7,0.7,1c0.2,0.3,0.4,0.7,0.5,1.2c0.1,0.5,0.2,1,0.3,1.6c0.1,0.6,0.1,1.4,0.1,2.4c0,1,0,1.8-0.1,2.5
				c0,0.6-0.2,1.2-0.3,1.6s-0.4,0.8-0.8,1.1c-0.3,0.3-0.8,0.6-1.4,1c0.7,0.4,1.2,0.8,1.5,1.2c0.3,0.4,0.6,0.8,0.8,1.3
				c0.2,0.5,0.3,1.1,0.3,1.7c0,0.7,0,1.5,0,2.6c0,1,0,1.8-0.1,2.4c0,0.6-0.1,1.2-0.2,1.6c-0.1,0.4-0.2,0.8-0.3,1.1
				c-0.1,0.3-0.3,0.6-0.5,0.9c-0.5,0.8-1.2,1.4-2,1.9c-0.8,0.5-1.9,0.8-3.2,0.8c-0.7,0-1.4-0.1-2.1-0.3s-1.4-0.6-2-1.1
				c-0.6-0.5-1.1-1.1-1.5-1.9c-0.4-0.8-0.6-1.8-0.6-2.9v-2.4h4.2v2.2c0,0.7,0.2,1.2,0.6,1.6s0.9,0.6,1.5,0.6c0.6,0,1.1-0.2,1.5-0.6
				c0.4-0.4,0.6-1,0.6-1.7v-4.2c0-0.6,0-1-0.1-1.4c-0.1-0.4-0.3-0.6-0.5-0.8c-0.2-0.2-0.6-0.3-1-0.4c-0.4-0.1-1-0.1-1.7-0.1V756.1z"
				/>
			<path fill="#FFFFFF" d="M1283.4,756.1c1.3,0,2.1-0.1,2.6-0.5c0.5-0.3,0.7-1,0.7-2.1v-3.8c0-0.6-0.2-1.1-0.6-1.5
				c-0.4-0.4-0.9-0.6-1.5-0.6c-0.7,0-1.3,0.2-1.6,0.7c-0.3,0.5-0.5,0.9-0.5,1.4v2.4h-4.2v-2.4c0-0.9,0.2-1.7,0.5-2.4
				c0.3-0.8,0.8-1.4,1.4-2s1.2-1,2-1.3c0.8-0.3,1.6-0.5,2.5-0.5c1.2,0,2.1,0.2,2.9,0.7c0.8,0.5,1.3,0.9,1.7,1.4
				c0.3,0.3,0.5,0.7,0.7,1c0.2,0.3,0.4,0.7,0.5,1.2c0.1,0.5,0.2,1,0.3,1.6c0.1,0.6,0.1,1.4,0.1,2.4c0,1,0,1.8-0.1,2.5
				c0,0.6-0.2,1.2-0.3,1.6s-0.4,0.8-0.8,1.1c-0.3,0.3-0.8,0.6-1.4,1c0.7,0.4,1.2,0.8,1.5,1.2c0.3,0.4,0.6,0.8,0.8,1.3
				c0.2,0.5,0.3,1.1,0.3,1.7c0,0.7,0,1.5,0,2.6c0,1,0,1.8-0.1,2.4c0,0.6-0.1,1.2-0.2,1.6c-0.1,0.4-0.2,0.8-0.3,1.1
				c-0.1,0.3-0.3,0.6-0.5,0.9c-0.5,0.8-1.2,1.4-2,1.9c-0.8,0.5-1.9,0.8-3.2,0.8c-0.7,0-1.4-0.1-2.1-0.3s-1.4-0.6-2-1.1
				c-0.6-0.5-1.1-1.1-1.5-1.9c-0.4-0.8-0.6-1.8-0.6-2.9v-2.4h4.2v2.2c0,0.7,0.2,1.2,0.6,1.6s0.9,0.6,1.5,0.6c0.6,0,1.1-0.2,1.5-0.6
				c0.4-0.4,0.6-1,0.6-1.7v-4.2c0-0.6,0-1-0.1-1.4c-0.1-0.4-0.3-0.6-0.5-0.8c-0.2-0.2-0.6-0.3-1-0.4c-0.4-0.1-1-0.1-1.7-0.1V756.1z"
				/>
		</g>
		<g>
			<path fill="#FFFFFF" d="M1192,814.5c1.3,0,2.1-0.1,2.6-0.5c0.5-0.3,0.7-1,0.7-2.1v-3.8c0-0.6-0.2-1.1-0.6-1.5
				c-0.4-0.4-0.9-0.6-1.5-0.6c-0.7,0-1.3,0.2-1.6,0.7c-0.3,0.5-0.5,0.9-0.5,1.4v2.4h-4.2v-2.4c0-0.9,0.2-1.7,0.5-2.4s0.8-1.4,1.4-2
				s1.2-1,2-1.3c0.8-0.3,1.6-0.5,2.5-0.5c1.2,0,2.1,0.2,2.9,0.7c0.8,0.5,1.3,0.9,1.7,1.4c0.3,0.3,0.5,0.7,0.7,1
				c0.2,0.3,0.4,0.7,0.5,1.2c0.1,0.5,0.2,1,0.3,1.6c0.1,0.6,0.1,1.4,0.1,2.4c0,1,0,1.8-0.1,2.5c0,0.6-0.2,1.2-0.3,1.6
				s-0.4,0.8-0.8,1.1c-0.3,0.3-0.8,0.6-1.4,1c0.7,0.4,1.2,0.8,1.5,1.2c0.3,0.4,0.6,0.8,0.8,1.3c0.2,0.5,0.3,1.1,0.3,1.7
				c0,0.7,0,1.5,0,2.6c0,1,0,1.8-0.1,2.4c0,0.6-0.1,1.2-0.2,1.6c-0.1,0.4-0.2,0.8-0.3,1.1c-0.1,0.3-0.3,0.6-0.5,0.9
				c-0.5,0.8-1.2,1.4-2,1.9c-0.8,0.5-1.9,0.8-3.2,0.8c-0.7,0-1.4-0.1-2.1-0.3c-0.7-0.2-1.4-0.6-2-1.1c-0.6-0.5-1.1-1.1-1.5-1.9
				c-0.4-0.8-0.6-1.8-0.6-2.9v-2.4h4.2v2.2c0,0.7,0.2,1.2,0.6,1.6s0.9,0.6,1.5,0.6c0.6,0,1.1-0.2,1.5-0.6c0.4-0.4,0.6-1,0.6-1.7V821
				c0-0.6,0-1-0.1-1.4c-0.1-0.4-0.3-0.6-0.5-0.8c-0.2-0.2-0.6-0.3-1-0.4c-0.4-0.1-1-0.1-1.7-0.1V814.5z"/>
			<path fill="#FFFFFF" d="M1209.7,827.1h-8.4v-4l6.1-21h4.5l-6.3,21h4.2v-8.4h4.2v8.4h2v4h-2v4.4h-4.2V827.1z"/>
		</g>
		<g>
			<path fill="#FFFFFF" d="M1196.3,104.1c0-1,0.2-1.9,0.5-2.6c0.3-0.8,0.8-1.4,1.4-2c0.6-0.5,1.2-1,2-1.3s1.5-0.4,2.4-0.4
				c0.8,0,1.6,0.1,2.4,0.4s1.4,0.7,2,1.3c0.6,0.5,1,1.2,1.4,2c0.3,0.8,0.5,1.6,0.5,2.6v17.2c0,1-0.2,1.9-0.5,2.6
				c-0.3,0.8-0.8,1.4-1.4,2c-0.6,0.5-1.2,1-2,1.3s-1.5,0.4-2.4,0.4c-0.8,0-1.6-0.1-2.4-0.4s-1.4-0.7-2-1.3c-0.6-0.5-1-1.2-1.4-2
				c-0.3-0.8-0.5-1.6-0.5-2.6V104.1z M1200.5,121.4c0,0.6,0.2,1.1,0.6,1.5c0.4,0.4,0.9,0.6,1.5,0.6c0.6,0,1.1-0.2,1.5-0.6
				c0.4-0.4,0.6-0.9,0.6-1.5v-17.2c0-0.6-0.2-1.1-0.6-1.5c-0.4-0.4-0.9-0.6-1.5-0.6c-0.6,0-1.1,0.2-1.5,0.6
				c-0.4,0.4-0.6,0.9-0.6,1.5V121.4z"/>
		</g>
		<g>
			<path fill="#FFFFFF" d="M1116.6,756.1c1.3,0,2.1-0.1,2.6-0.5c0.5-0.3,0.7-1,0.7-2.1v-3.8c0-0.6-0.2-1.1-0.6-1.5
				c-0.4-0.4-0.9-0.6-1.5-0.6c-0.7,0-1.3,0.2-1.6,0.7c-0.3,0.5-0.5,0.9-0.5,1.4v2.4h-4.2v-2.4c0-0.9,0.2-1.7,0.5-2.4
				c0.3-0.8,0.8-1.4,1.4-2c0.6-0.5,1.2-1,2-1.3s1.6-0.5,2.5-0.5c1.2,0,2.1,0.2,2.9,0.7c0.8,0.5,1.3,0.9,1.7,1.4
				c0.3,0.3,0.5,0.7,0.7,1c0.2,0.3,0.4,0.7,0.5,1.2c0.1,0.5,0.2,1,0.3,1.6c0.1,0.6,0.1,1.4,0.1,2.4c0,1,0,1.8-0.1,2.5
				c0,0.6-0.2,1.2-0.3,1.6s-0.4,0.8-0.8,1.1c-0.3,0.3-0.8,0.6-1.4,1c0.7,0.4,1.2,0.8,1.5,1.2c0.3,0.4,0.6,0.8,0.8,1.3
				c0.2,0.5,0.3,1.1,0.3,1.7c0,0.7,0,1.5,0,2.6c0,1,0,1.8-0.1,2.4c0,0.6-0.1,1.2-0.2,1.6c-0.1,0.4-0.2,0.8-0.3,1.1
				c-0.1,0.3-0.3,0.6-0.5,0.9c-0.5,0.8-1.2,1.4-2,1.9c-0.8,0.5-1.9,0.8-3.2,0.8c-0.7,0-1.4-0.1-2.1-0.3c-0.7-0.2-1.4-0.6-2-1.1
				c-0.6-0.5-1.1-1.1-1.5-1.9c-0.4-0.8-0.6-1.8-0.6-2.9v-2.4h4.2v2.2c0,0.7,0.2,1.2,0.6,1.6c0.4,0.4,0.9,0.6,1.5,0.6
				c0.6,0,1.1-0.2,1.5-0.6c0.4-0.4,0.6-1,0.6-1.7v-4.2c0-0.6,0-1-0.1-1.4c-0.1-0.4-0.3-0.6-0.5-0.8c-0.2-0.2-0.6-0.3-1-0.4
				c-0.4-0.1-1-0.1-1.7-0.1V756.1z"/>
			<path fill="#FFFFFF" d="M1131.9,748.2l-4.2,3.1v-4.5l4.2-3.1h4.2v29.3h-4.2V748.2z"/>
		</g>
		<path fill="#FFFFFF" d="M1090.2,375.9h-62.5V137.1h62.5V375.9z M1030.7,372.9h56.5V140.1h-56.5V372.9z"/>
		<path fill="#FFFFFF" d="M1030.7,258h-62.5V137.1h62.5V258z M971.2,255h56.5V140.1h-56.5V255z"/>
		<path fill="#FFFFFF" d="M1030.7,375.9h-62.5V255h62.5V375.9z M971.2,372.9h56.5V258h-56.5V372.9z"/>
		<path fill="#FFFFFF" d="M1030.7,493.8h-62.5V372.9h62.5V493.8z M971.2,490.8h56.5V375.9h-56.5V490.8z"/>
		<path fill="#FFFFFF" d="M1030.7,611.7h-62.5V490.8h62.5V611.7z M971.2,608.7h56.5V493.8h-56.5V608.7z"/>
		<path fill="#FFFFFF" d="M1030.7,729.6h-62.5V608.7h62.5V729.6z M971.2,726.6h56.5V611.7h-56.5V726.6z"/>
		<path fill="#FFFFFF" d="M1030.7,847.5h-62.5V726.6h62.5V847.5z M971.2,844.5h56.5V729.6h-56.5V844.5z"/>
		<path fill="#FFFFFF" d="M1090.2,611.7h-62.5V372.9h62.5V611.7z M1030.7,608.7h56.5V375.9h-56.5V608.7z"/>
		<path fill="#FFFFFF" d="M1090.2,847.5h-62.5V608.7h62.5V847.5z M1030.7,844.5h56.5V611.7h-56.5V844.5z"/>
	</g>
</g>
</svg>
